<svg width="43" height="43" viewBox="0 0 43 43" fill="none" xmlns="http://www.w3.org/2000/svg">
<g clip-path="url(#clip0_4629_2266)">
<path d="M24.5314 13.8862C23.6984 14.3219 23.3887 15.0587 23.3887 17.0922C23.3887 17.0922 23.8104 16.6844 24.4352 16.4587C24.8902 16.2942 25.2804 16.0422 25.5044 15.8777C26.2079 15.3632 26.3164 14.6982 26.3164 13.5817C26.3164 13.5817 25.1702 13.5519 24.5314 13.8862Z" fill="#19191A"/>
<path d="M19.5945 14.3638C18.9155 14.9623 18.7177 15.916 18.7177 15.916L16.4707 24.6223L14.6017 17.4963C14.4197 16.7385 14.0907 15.8023 13.5727 15.1688C12.9112 14.362 11.5672 14.3113 11.4237 14.3113C11.2802 14.3113 9.9362 14.362 9.2747 15.1688C8.75495 15.8023 8.4277 16.7385 8.2457 17.4963L6.3767 24.6223L4.1297 15.916C4.1297 15.916 3.93195 14.9623 3.25295 14.3638C2.1522 13.3925 0.501953 13.6008 0.501953 13.6008L4.8052 29.8705C4.8052 29.8705 6.22445 29.972 6.93495 29.6098C7.8677 29.1338 8.3122 28.768 8.87745 26.5543C9.38145 24.5803 10.7885 18.7843 10.9197 18.3713C10.9845 18.1665 11.0667 17.68 11.4237 17.68C11.7895 17.68 11.8647 18.1665 11.9295 18.3713C12.059 18.7843 13.4677 24.5803 13.9717 26.5543C14.537 28.768 14.9797 29.1355 15.9142 29.6098C16.6247 29.972 18.044 29.8705 18.044 29.8705L22.3472 13.6008C22.3472 13.6008 20.6952 13.3925 19.5945 14.3638Z" fill="#19191A"/>
<path d="M26.3164 16.2573C26.3164 16.2573 26.0469 16.6738 25.4327 17.0168C25.0389 17.2373 24.6592 17.3861 24.2532 17.5821C23.5724 17.9093 23.3887 18.2716 23.3887 18.8263V29.8706C23.3887 29.8706 24.4737 30.0071 25.1842 29.6466C26.0977 29.1811 26.3077 28.7313 26.3164 26.7083V16.2573Z" fill="#19191A"/>
<path d="M37.0418 21.7752L42.5018 13.6552C42.5018 13.6552 40.1971 13.2632 39.0561 14.3009C38.3263 14.9659 37.5091 16.1612 37.5091 16.1612L35.5018 19.0574C35.4038 19.2079 35.2761 19.3724 35.0731 19.3724C34.8701 19.3724 34.7423 19.2079 34.6443 19.0574L32.6353 16.1612C32.6353 16.1612 31.8181 14.9659 31.0883 14.3009C29.9473 13.2614 27.6426 13.6552 27.6426 13.6552L33.1026 21.7752L27.6566 29.8707C27.6566 29.8707 30.0558 30.1734 31.1968 29.1357C31.9266 28.4707 32.6336 27.3909 32.6336 27.3909L34.6426 24.4947C34.7406 24.3442 34.8683 24.1797 35.0713 24.1797C35.2743 24.1797 35.4021 24.3442 35.5001 24.4947L37.5091 27.3909C37.5091 27.3909 38.2581 28.4707 38.9878 29.1357C40.1288 30.1734 42.4861 29.8707 42.4861 29.8707L37.0418 21.7752Z" fill="#19191A"/>
</g>
<defs>
<clipPath id="clip0_4629_2266">
<rect width="42" height="42" fill="white" transform="translate(0.501953 0.74707)"/>
</clipPath>
</defs>
</svg>
