<svg width="101" height="24" viewBox="0 0 101 24" fill="none" xmlns="http://www.w3.org/2000/svg">
<path d="M54.2671 17.1271C54.9585 15.343 55.6195 13.7444 56.1947 12.1157C56.5703 11.052 57.4072 11.5358 58.0447 11.5106C58.7693 11.482 58.4565 12.1437 58.4616 12.4953C58.4924 14.6251 58.4631 16.7557 58.4863 18.8857C58.4923 19.4386 58.4188 19.7221 57.7431 19.7188C57.0477 19.7155 57.0124 19.3872 57.0192 18.8572C57.0606 17.2101 57.0045 15.5621 56.8513 13.9217C56.1947 15.5668 55.5453 17.2148 54.8752 18.8544C54.7473 19.1674 54.7763 19.6432 54.2882 19.6805C53.7112 19.7246 53.7346 19.1853 53.5976 18.8531C52.9169 17.2028 52.2653 15.5407 51.4057 13.9106C51.4057 15.5785 51.381 17.247 51.4188 18.914C51.4325 19.5171 51.2717 19.715 50.6419 19.7171C49.9962 19.7193 49.9658 19.4192 49.9697 18.9253C49.9869 16.7619 49.9618 14.598 49.9938 12.435C49.9985 12.1156 49.6881 11.47 50.3558 11.5164C50.9915 11.5607 51.8512 11.003 52.2411 12.0623C52.7923 13.5596 53.3939 15.0385 53.9769 16.524C54.0349 16.6717 54.1141 16.8111 54.2671 17.1271Z" fill="#19191A"/>
<path d="M64.9445 16.9563C65.5674 15.3536 66.2412 13.7934 66.7754 12.187C67.1535 11.0503 68.0146 11.5243 68.6788 11.5128C69.3888 11.5004 69.0698 12.1626 69.075 12.5163C69.1068 14.6464 69.084 16.7773 69.0959 18.9078C69.0986 19.3832 69.0991 19.7291 68.4343 19.7144C67.8424 19.7013 67.6165 19.5644 67.6324 18.9323C67.6866 17.2563 67.6319 15.5786 67.4686 13.9097C66.811 15.5564 66.1619 17.2065 65.4887 18.8468C65.3517 19.1809 65.3903 19.7183 64.8096 19.6798C64.3191 19.6472 64.3422 19.1713 64.2142 18.8599C63.5355 17.2081 62.8803 15.5468 62.0233 13.9133C62.0233 15.5486 62.0066 17.1842 62.0324 18.8191C62.0414 19.3944 61.9921 19.7204 61.2526 19.722C60.4796 19.7238 60.5861 19.2874 60.5864 18.8254C60.5878 16.6948 60.5718 14.564 60.6034 12.4339C60.6081 12.1132 60.3023 11.4692 60.9705 11.5157C61.6073 11.5601 62.467 11.0059 62.8564 12.0636C63.4079 13.5613 64.0091 15.0407 64.5891 16.5279C64.6477 16.6783 64.6576 16.8603 64.9445 16.9563Z" fill="#19191A"/>
<path d="M71.2039 15.4986C71.2039 14.3988 71.231 13.298 71.1928 12.1995C71.1727 11.6251 71.3734 11.4555 71.9374 11.4695C73.3396 11.5045 74.7435 11.4982 76.1461 11.4722C76.6579 11.4627 76.8538 11.614 76.8496 12.1501C76.8455 12.6655 76.6124 12.7643 76.1753 12.7561C75.3071 12.7399 74.4326 12.8141 73.5714 12.7349C72.6825 12.6533 72.6055 13.0974 72.6306 13.795C72.6532 14.4255 72.5606 14.993 73.5277 14.8882C74.3531 14.7988 75.197 14.8946 76.0307 14.8609C76.5443 14.8401 76.7361 14.9986 76.7311 15.5335C76.7264 16.0452 76.5041 16.1423 76.0629 16.1307C75.2283 16.1087 74.3884 16.1778 73.5589 16.1094C72.7736 16.0447 72.5338 16.3535 72.6392 17.0775C72.6688 17.3095 72.6693 17.5442 72.6406 17.7762C72.5814 18.3208 72.8446 18.4635 73.3464 18.4489C74.281 18.4216 75.217 18.4491 76.1522 18.4381C76.56 18.4334 76.8522 18.4609 76.8495 19.0101C76.847 19.5261 76.6953 19.7142 76.1636 19.7035C74.7277 19.6747 73.2903 19.6709 71.8547 19.7051C71.2977 19.7183 71.1852 19.4881 71.1958 18.9979C71.2211 17.832 71.2039 16.6651 71.2039 15.4986Z" fill="#19191A"/>
<path d="M94.8637 15.4811C94.8637 14.3818 94.8801 13.2821 94.8562 12.1833C94.8457 11.7012 94.9444 11.4561 95.5088 11.4698C96.9438 11.5045 98.3805 11.5006 99.8157 11.4713C100.35 11.4604 100.498 11.6534 100.5 12.1661C100.503 12.6998 100.232 12.7607 99.8126 12.7555C98.8778 12.7438 97.9413 12.7856 97.0083 12.7437C95.9884 12.6979 96.3542 13.4324 96.3125 13.9154C96.2703 14.4029 96.171 14.9365 97.0059 14.8834C97.9371 14.8241 98.8757 14.8941 99.8095 14.8618C100.354 14.8429 100.378 15.1394 100.387 15.5486C100.396 15.9744 100.246 16.1447 99.809 16.1305C99.0752 16.1067 98.34 16.1246 97.6054 16.1248C96.2995 16.1253 96.3458 16.1274 96.2869 17.3867C96.2496 18.1855 96.4445 18.5377 97.3163 18.4578C98.1441 18.3819 98.9846 18.4535 99.819 18.4369C100.245 18.4285 100.498 18.4951 100.502 19.0249C100.505 19.5617 100.312 19.712 99.8009 19.7026C98.399 19.677 96.9957 19.6707 95.5942 19.7053C95.0329 19.7192 94.8323 19.5555 94.8519 18.9787C94.8914 17.814 94.8636 16.6471 94.8637 15.4811Z" fill="#19191A"/>
<path d="M36.3875 19.86C35.6417 19.8603 34.9118 19.6447 34.2859 19.2394C33.6599 18.834 33.1646 18.2562 32.8597 17.5756C32.4722 16.8297 32.3099 15.9871 32.3926 15.1505C32.4754 14.314 32.7997 13.5196 33.3259 12.864C34.3614 11.5335 35.7979 11.135 37.4419 11.4484C38.1376 11.5763 38.766 11.9453 39.2167 12.4905C39.4056 12.7152 39.9417 12.9813 39.4041 13.3527C39.051 13.5966 38.7219 13.9128 38.2035 13.4105C37.977 13.165 37.7014 12.9698 37.3948 12.8374C37.0881 12.7049 36.757 12.6383 36.423 12.6416C36.089 12.645 35.7593 12.7184 35.4554 12.857C35.1515 12.9956 34.8799 13.1963 34.6584 13.4463C34.1419 14.0411 33.8575 14.8023 33.8576 15.59C33.8576 16.3777 34.1422 17.1388 34.6588 17.7335C34.8782 17.9858 35.1485 18.1889 35.4519 18.3295C35.7553 18.4701 36.0849 18.545 36.4193 18.5494C36.7537 18.5537 37.0852 18.4874 37.3921 18.3547C37.6991 18.222 37.9745 18.026 38.2005 17.7795C38.7645 17.2319 39.1552 17.5904 39.4745 17.8863C39.8794 18.2616 39.3545 18.5208 39.1479 18.7528C38.7961 19.1271 38.3668 19.4201 37.89 19.6114C37.4132 19.8026 36.9004 19.8875 36.3875 19.86Z" fill="#19191A"/>
<path d="M86.2126 15.5301C86.1766 14.6737 86.4129 13.8278 86.8878 13.1142C87.3626 12.4005 88.0515 11.8557 88.8553 11.5581C89.5717 11.266 90.3609 11.2024 91.1148 11.376C91.8687 11.5497 92.5506 11.952 93.067 12.5281C93.2367 12.7357 93.7169 13.0038 93.1961 13.3082C92.8741 13.4964 92.5934 13.9235 92.0763 13.4587C90.9556 12.4512 89.8474 12.3638 88.8291 13.0764C88.3135 13.4803 87.9361 14.0344 87.7492 14.6621C87.5623 15.2898 87.5751 15.96 87.7857 16.5802C88.4049 18.5154 90.4929 19.1351 91.9791 17.7534C92.5446 17.2276 92.9285 17.5471 93.2571 17.8442C93.659 18.2077 93.1566 18.4703 92.9493 18.6962C92.4138 19.2549 91.7172 19.6326 90.9568 19.7765C90.1963 19.9205 89.4099 19.8235 88.7072 19.4991C87.1228 18.8556 86.2033 17.3926 86.2126 15.5301Z" fill="#19191A"/>
<path d="M31.0772 13.3742C31.2538 15.1548 31.2538 15.1548 29.5949 15.1549C29.1943 15.1549 28.7914 15.182 28.3937 15.1487C27.7714 15.0965 27.5098 15.277 27.5151 15.9734C27.5204 16.6815 27.8734 16.7193 28.3912 16.6809C28.5908 16.6614 28.7918 16.6624 28.9912 16.6837C29.2548 16.7187 29.6479 16.5245 29.7016 16.9973C29.7522 17.1734 29.7442 17.3612 29.6787 17.5324C29.6133 17.7036 29.4941 17.8489 29.3389 17.9464C28.8265 18.2333 28.2354 18.3478 27.653 18.2729C27.0705 18.198 26.5276 17.9377 26.1044 17.5306C25.6643 17.0238 25.4105 16.3819 25.3849 15.7112C25.3594 15.0405 25.5637 14.3812 25.9641 13.8424C26.694 12.9178 28.0835 12.5308 29.0078 13.1984C29.7205 13.7131 30.3108 13.9727 31.0772 13.3742Z" fill="#19191A"/>
<path d="M14.688 18.1485C14.2712 18.0654 13.4081 18.5522 13.4544 17.2816C13.485 16.443 13.7106 16.1615 14.5232 16.2696C14.9471 16.326 15.3853 16.2657 15.8149 16.2929C15.9403 16.2838 16.0662 16.301 16.1845 16.3436C16.3028 16.3862 16.4109 16.4531 16.5017 16.54C16.5926 16.6269 16.6642 16.7319 16.712 16.8482C16.7597 16.9646 16.7826 17.0896 16.779 17.2153C16.7931 17.8232 16.4255 18.1133 15.8446 18.1452C15.5142 18.1633 15.182 18.1485 14.688 18.1485Z" fill="#19191A"/>
<path d="M14.8355 13.0184C15.5624 13.1124 16.5753 12.7573 16.5926 13.8608C16.6111 15.0424 15.5594 14.7197 14.8526 14.747C14.1797 14.773 13.388 15.0387 13.4552 13.7701C13.523 12.4889 14.4191 13.2759 14.8355 13.0184Z" fill="#19191A"/>
<path d="M31.1503 18.8101C28.0713 20.2509 25.8882 20.0442 24.4724 18.2298C23.8884 17.4512 23.5807 16.5001 23.5977 15.527C23.6147 14.5539 23.9556 13.6142 24.5664 12.8564C24.9623 12.402 25.4486 12.0352 25.9944 11.7795C26.5401 11.5239 27.1332 11.3849 27.7357 11.3715C29.0311 11.2796 30.1001 11.8044 31.1509 12.7688C31.1509 8.87014 31.157 5.17978 31.1407 1.48952C31.1392 1.15789 31.3621 0.692936 30.9225 0.510659C30.5752 0.36667 30.3241 0.734683 30.0654 0.923842C25.5436 4.23068 21.0257 7.54289 16.5118 10.8605C16.3074 11.0106 16.0219 11.0949 15.9589 11.4376C16.0882 11.4597 16.2098 11.4855 16.3327 11.5007C17.2209 11.6099 17.9635 11.9742 18.2638 12.8597C18.4399 13.2628 18.4711 13.7145 18.3521 14.1379C18.233 14.5614 17.9712 14.9306 17.6108 15.1829C17.1112 15.5496 17.5659 15.6488 17.7547 15.8053C18.1288 16.0939 18.3955 16.4996 18.5121 16.9575C18.6287 17.4155 18.5884 17.8992 18.3979 18.3317C18.0547 19.2979 17.2524 19.6712 16.2676 19.6797C15.0658 19.69 13.8612 19.635 12.6629 19.7006C11.8956 19.7426 11.6905 19.4868 11.7208 18.7461C11.7781 17.3436 11.7373 15.937 11.7373 14.3539C8.91185 16.4233 6.28008 18.3508 3.64835 20.2784C2.7067 20.9681 1.76556 21.6585 0.824924 22.3495C0.66956 22.4643 0.441933 22.5729 0.51658 22.8097C0.589688 23.0416 0.831396 23.0082 1.0271 23.0122C1.26071 23.017 1.49449 23.0144 1.72819 23.0144C10.0413 23.0144 18.3545 23.0144 26.6676 23.0144C27.9029 23.0144 29.1382 23.0106 30.3735 23.0162C30.8018 23.0181 31.171 23.0141 31.1579 22.4086C31.132 21.2233 31.1503 20.0371 31.1503 18.8101ZM21.9628 15.5773C21.9627 16.7427 21.931 17.9092 21.9745 19.0729C22.0008 19.7779 21.5635 19.6951 21.1304 19.6827C20.7205 19.6709 20.2449 19.8245 20.2527 19.0999C20.2779 16.7695 20.2776 14.439 20.252 12.1082C20.2425 11.3165 20.7733 11.5311 21.2035 11.4864C21.7332 11.4313 21.9976 11.5734 21.975 12.1817C21.9329 13.3122 21.9629 14.4453 21.9628 15.5773Z" fill="#19191A"/>
<path d="M83.7929 16.2752C84.9779 15.6402 85.3772 14.6333 85.0717 13.3345C84.8126 12.2331 83.8456 11.5158 82.5292 11.4864C81.5616 11.4648 80.591 11.5196 79.6257 11.4676C78.9879 11.4333 78.8394 11.6683 78.848 12.2667C78.8797 14.4644 78.8705 16.663 78.8532 18.861C78.8491 19.3858 78.8669 19.723 79.5718 19.7194C80.2573 19.716 80.3437 19.4129 80.3046 18.8695C80.264 18.4715 80.2666 18.0703 80.3123 17.6729C80.3634 17.3259 80.0212 16.7715 80.6257 16.672C81.1527 16.5853 81.7599 16.4674 82.0721 17.187C82.2826 17.6721 82.6633 18.0865 82.8551 18.5765C83.2535 19.5941 83.9468 19.9151 85.0024 19.6152C85.0223 19.5261 85.0466 19.4838 85.0343 19.4634C84.5546 18.6655 84.0903 17.8575 83.5811 17.0787C83.3255 16.6878 83.3352 16.5204 83.7929 16.2752ZM82.6759 15.2782C82.0475 15.3395 81.416 15.3622 80.7848 15.3463C80.4636 15.354 80.289 15.2103 80.2975 14.8718C80.3043 14.6063 80.2964 14.3405 80.2963 14.0749C80.2959 12.7439 80.2961 12.7439 81.6408 12.7162C82.0046 12.7366 82.3668 12.7796 82.7253 12.8449C83.0085 12.8947 83.2624 13.0498 83.436 13.279C83.6096 13.5082 83.6901 13.7946 83.6613 14.0807C83.6817 14.3685 83.5909 14.6532 83.4075 14.8761C83.2242 15.0989 82.9623 15.2429 82.6759 15.2782Z" fill="#19191A"/>
<path d="M44.4783 11.3397C42.2194 11.2938 40.4821 13.1094 40.453 15.5464C40.4236 18.0139 42.1318 19.8445 44.4786 19.8605C45.023 19.8664 45.5629 19.7623 46.066 19.5543C46.569 19.3463 47.0249 19.0389 47.4062 18.6503C47.7875 18.2618 48.0863 17.8002 48.2847 17.2933C48.4832 16.7864 48.5772 16.2447 48.561 15.7005C48.5744 14.5874 48.1571 13.5121 47.3963 12.6994C46.6355 11.8867 45.59 11.3996 44.4783 11.3397ZM44.4978 18.5372C42.9598 18.5341 41.9135 17.3509 41.9075 15.6081C41.9016 13.8644 42.9374 12.6669 44.469 12.6468C46.0251 12.6264 47.1613 13.8954 47.139 15.629C47.117 17.3334 46.021 18.5403 44.4978 18.5372Z" fill="#19191A"/>
</svg>
