<svg width="77" height="23" viewBox="0 0 77 23" fill="none" xmlns="http://www.w3.org/2000/svg">
<path d="M16.5959 4.91387C16.5811 4.80459 16.4863 4.74397 16.4078 4.73737C16.3297 4.73077 14.8014 4.70736 14.8014 4.70736C14.8014 4.70736 13.5231 3.45623 13.3969 3.32895C13.2706 3.20167 13.024 3.2401 12.9281 3.26891C12.9269 3.26952 12.6881 3.34396 12.2861 3.46943C12.2188 3.24971 12.1199 2.97955 11.9787 2.70819C11.5237 1.83288 10.8572 1.37001 10.0519 1.36882C10.0507 1.36882 10.0501 1.36882 10.0489 1.36882C9.99288 1.36882 9.9375 1.37422 9.88154 1.37902C9.85771 1.3502 9.83388 1.32199 9.80886 1.29437C9.45802 0.916151 9.00836 0.731844 8.46932 0.748054C7.42935 0.778071 6.39359 1.53511 5.55376 2.87989C4.96289 3.82603 4.51318 5.01475 4.38574 5.93507C3.19151 6.30788 2.35644 6.56841 2.33798 6.57444C1.73521 6.76534 1.71616 6.78395 1.63754 7.3567C1.57916 7.78953 0.00195312 20.0823 0.00195312 20.0823L13.2194 22.3864L18.948 20.951C18.948 20.951 16.6109 5.02315 16.5959 4.91387ZM11.6243 3.67596C11.32 3.7708 10.9739 3.87888 10.5986 3.99594C10.5909 3.46523 10.5284 2.72681 10.283 2.08863C11.0722 2.23932 11.4605 3.13925 11.6243 3.67596ZM9.90712 4.21207C9.21443 4.42817 8.45857 4.66411 7.70036 4.90067C7.91358 4.07758 8.31803 3.25811 8.81479 2.72079C8.99942 2.52088 9.2579 2.29815 9.56405 2.17088C9.85172 2.77604 9.91428 3.63272 9.90712 4.21207ZM8.49014 1.44566C8.73434 1.44025 8.93983 1.49429 9.11555 1.61075C8.83443 1.75784 8.56281 1.96916 8.3079 2.24472C7.64734 2.95914 7.14107 4.06799 6.93914 5.1378C6.30957 5.3341 5.69369 5.52685 5.12667 5.70335C5.48466 4.01936 6.88493 1.49248 8.49014 1.44566Z" fill="#949699"/>
<path d="M16.4085 4.73772C16.3306 4.73112 14.8022 4.70772 14.8022 4.70772C14.8022 4.70772 13.524 3.45659 13.3977 3.32931C13.3507 3.28189 13.287 3.25728 13.2202 3.24707L13.2208 22.3857L18.9489 20.9508C18.9489 20.9508 16.6118 5.02351 16.5968 4.91424C16.5819 4.80496 16.4866 4.74432 16.4085 4.73772Z" fill="#575759"/>
<path d="M10.0449 7.70724L9.37961 10.2161C9.37961 10.2161 8.63747 9.87569 7.75773 9.93152C6.4676 10.0138 6.45388 10.8338 6.46702 11.0398C6.53729 12.1618 9.46594 12.4068 9.63036 15.0351C9.7596 17.1026 8.54214 18.517 6.78806 18.6287C4.68251 18.7627 3.52344 17.5109 3.52344 17.5109L3.96957 15.5982C3.96957 15.5982 5.13638 16.4856 6.0703 16.4261C6.68024 16.387 6.89822 15.887 6.87618 15.5334C6.78448 14.0697 4.39959 14.1562 4.24892 11.7512C4.12204 9.72742 5.44077 7.67663 8.35035 7.49172C9.47131 7.41909 10.0449 7.70724 10.0449 7.70724Z" fill="#19191A"/>
<path d="M26.4918 12.9602C25.833 12.5999 25.4945 12.2963 25.4945 11.8788C25.4945 11.3477 25.9647 11.0065 26.6991 11.0065C27.5538 11.0065 28.3172 11.3667 28.3172 11.3667L28.9191 9.50774C28.9191 9.50774 28.3655 9.07129 26.7362 9.07129C24.4688 9.07129 22.8975 10.3801 22.8975 12.22C22.8975 13.2633 23.6312 14.06 24.6101 14.6286C25.4006 15.0836 25.683 15.4063 25.683 15.8803C25.683 16.3734 25.2878 16.7717 24.554 16.7717C23.4604 16.7717 22.4279 16.2024 22.4279 16.2024L21.7881 18.0614C21.7881 18.0614 22.7421 18.7063 24.3473 18.7063C26.6808 18.7063 28.3555 17.5493 28.3555 15.4629C28.3549 14.3446 27.5084 13.5479 26.4918 12.9602Z" fill="#19191A"/>
<path d="M35.7884 9.05285C34.6405 9.05285 33.7373 9.60307 33.0412 10.4373L33.0035 10.4182L34.0007 5.16455H31.4036L28.8823 18.5361H31.4793L32.3447 13.9653C32.6832 12.2391 33.5677 11.1774 34.3959 11.1774C34.979 11.1774 35.2053 11.5758 35.2053 12.145C35.2053 12.5053 35.1674 12.9418 35.0923 13.302L34.1141 18.5367H36.7112L37.727 13.1311C37.8401 12.5619 37.9156 11.8795 37.9156 11.4239C37.9145 9.94425 37.1431 9.05285 35.7884 9.05285Z" fill="#19191A"/>
<path d="M43.7852 9.05273C40.6611 9.05273 38.5918 11.8978 38.5918 15.065C38.5918 17.0943 39.8335 18.7254 42.1671 18.7254C45.2343 18.7254 47.3043 15.9564 47.3043 12.713C47.3043 10.8355 46.2125 9.05273 43.7852 9.05273ZM42.5056 16.7156C41.6212 16.7156 41.2447 15.957 41.2447 15.0085C41.2447 13.5103 42.0165 11.0636 43.4276 11.0636C44.3498 11.0636 44.6504 11.8603 44.6504 12.638C44.6504 14.2499 43.8796 16.7156 42.5056 16.7156Z" fill="#19191A"/>
<path d="M53.9469 9.05273C52.1939 9.05273 51.1993 10.6081 51.1993 10.6081H51.162L51.3127 9.20457H49.0169C48.9042 10.1531 48.6967 11.5941 48.4902 12.6755L46.6836 22.2533H49.2807L49.9952 18.384H50.052C50.052 18.384 50.5848 18.7254 51.5764 18.7254C54.6246 18.7254 56.6192 15.5771 56.6192 12.3903C56.6192 10.6271 55.8474 9.05273 53.9469 9.05273ZM51.4631 16.7531C50.7888 16.7531 50.3899 16.3738 50.3899 16.3738L50.8228 13.9271C51.1241 12.2962 51.9707 11.2148 52.8742 11.2148C53.6647 11.2148 53.909 11.9544 53.909 12.6564C53.909 14.3445 52.9118 16.7531 51.4631 16.7531Z" fill="#19191A"/>
<path d="M60.3262 5.29736C59.4986 5.29736 58.8398 5.96129 58.8398 6.81457C58.8398 7.59224 59.329 8.12339 60.0627 8.12339H60.1003C60.9098 8.12339 61.6058 7.57317 61.6247 6.60618C61.6247 5.84753 61.1166 5.29736 60.3262 5.29736Z" fill="#19191A"/>
<path d="M56.6948 18.5364H59.2911L61.0605 9.26221H58.4445L56.6948 18.5364Z" fill="#19191A"/>
<path d="M67.6652 9.2427H65.8586L65.9523 8.80624C66.1029 7.91485 66.63 7.11811 67.4956 7.11811C67.9574 7.11811 68.3232 7.25091 68.3232 7.25091L68.8313 5.20257C68.8313 5.20257 68.3797 4.9751 67.4197 4.9751C66.4976 4.9751 65.5762 5.24066 64.8796 5.84741C63.995 6.60606 63.581 7.70585 63.3743 8.80624L63.2994 9.2427H62.0947L61.7182 11.2155H62.923L61.5493 18.5366H64.1464L65.52 11.2155H67.3076L67.6652 9.2427Z" fill="#19191A"/>
<path d="M73.9124 9.26184C73.9124 9.26184 72.289 13.3841 71.5601 15.6344H71.5222C71.4728 14.9097 70.8824 9.26184 70.8824 9.26184H68.1537L69.7163 17.7774C69.7542 17.9667 69.7353 18.0812 69.6598 18.2139C69.3581 18.8015 68.8504 19.3709 68.2482 19.7883C67.759 20.1486 67.2134 20.3759 66.7808 20.5278L67.4956 22.747C68.0228 22.6333 69.1137 22.1968 70.0358 21.3245C71.2216 20.2057 72.3126 18.4795 73.4416 16.1274L76.6218 9.26123H73.9124V9.26184Z" fill="#19191A"/>
</svg>
