<svg width="101" height="20" viewBox="0 0 101 20" fill="none" xmlns="http://www.w3.org/2000/svg">
<path d="M35.5139 5.85137C36.0474 5.09257 36.7895 4.79702 37.6384 4.77173C38.1578 4.74787 38.6782 4.78433 39.1891 4.8804C40.6196 5.17652 41.5392 6.26347 41.6561 7.71954C41.6724 7.92218 41.6816 8.12595 41.6819 8.32921C41.6839 10.0791 41.6879 11.829 41.6776 13.5789C41.6794 13.8385 41.638 14.0965 41.5552 14.3425C41.457 14.6172 41.2746 14.8539 41.0339 15.0188C40.7933 15.1836 40.5067 15.2683 40.2151 15.2607C39.9306 15.2803 39.648 15.2019 39.4143 15.0385C39.1807 14.8751 39.01 14.6367 38.9307 14.3628C38.7803 13.917 38.6991 13.4508 38.69 12.9805C38.6865 11.9969 38.7645 11.0132 38.7961 10.0291C38.8355 9.45079 38.7631 8.87028 38.5828 8.31935C38.2751 7.47317 37.5755 7.09776 36.703 7.30731C36.4883 7.35926 36.2892 7.46206 36.1224 7.60704C35.9557 7.75202 35.8262 7.93494 35.745 8.1404C35.5373 8.62077 35.4399 9.14158 35.4601 9.66453C35.476 10.6814 35.5244 11.6978 35.551 12.7146C35.5909 13.3015 35.4993 13.89 35.283 14.4371C35.2121 14.6091 35.1064 14.7646 34.9726 14.8939C34.8388 15.0232 34.6798 15.1234 34.5054 15.1884C34.3311 15.2534 34.1452 15.2817 33.9594 15.2715C33.7737 15.2614 33.592 15.213 33.4258 15.1294C33.1756 15.0151 32.9629 14.8324 32.8122 14.6023C32.6616 14.3722 32.5792 14.1042 32.5745 13.8292C32.5551 13.5374 32.5685 13.2434 32.5684 12.9504C32.5682 10.8098 32.5677 8.66923 32.5669 6.52865C32.5522 6.18477 32.6474 5.84514 32.8385 5.55891C32.9851 5.36071 33.1769 5.20038 33.398 5.09128C33.619 4.98218 33.8629 4.92746 34.1094 4.93167C34.3559 4.93589 34.5978 4.99892 34.815 5.11552C35.0322 5.23212 35.2184 5.39892 35.3581 5.60202C35.4062 5.67539 35.4512 5.75082 35.5139 5.85137Z" fill="#19191A"/>
<path d="M47.5721 4.75075C48.357 4.73516 49.1357 4.89297 49.8526 5.21293C50.6763 5.60085 51.0362 6.22438 50.896 6.99787C50.877 7.16872 50.8218 7.33356 50.7341 7.48141C50.6463 7.62925 50.5281 7.75669 50.3873 7.85525C50.2464 7.95381 50.0862 8.02122 49.9172 8.05299C49.7483 8.08475 49.5745 8.08014 49.4075 8.03947C49.1924 7.99952 48.9826 7.92908 48.7718 7.86786C48.561 7.80665 48.3547 7.72819 48.1416 7.67677C46.886 7.37363 45.8063 8.03781 45.5171 9.29622C45.3484 9.96509 45.3961 10.6702 45.6535 11.3102C46.0832 12.354 46.9159 12.7818 48.0117 12.5141C48.4459 12.4081 48.8681 12.2527 49.3029 12.1494C49.9709 11.9907 50.4127 12.1814 50.7364 12.7327C50.8854 12.9834 50.9486 13.2758 50.9167 13.5658C50.8848 13.8557 50.7593 14.1273 50.5594 14.3396C50.141 14.768 49.6097 15.0689 49.0272 15.2074C45.63 16.2025 43.1077 14.0851 42.5931 11.3023C42.3181 9.81535 42.4781 8.37537 43.2847 7.06248C44.2518 5.48809 45.6716 4.71415 47.5721 4.75075Z" fill="#19191A"/>
<path d="M71.5499 5.02787C71.5499 4.6266 71.5307 4.23622 71.5551 3.8486C71.5677 3.427 71.6188 3.00743 71.7078 2.59514C71.7628 2.29402 71.9264 2.02353 72.1675 1.83492C72.4086 1.64631 72.7105 1.55268 73.016 1.57175C73.3173 1.55115 73.6158 1.64088 73.8558 1.82419C74.0958 2.00751 74.2609 2.27188 74.3203 2.56797C74.4155 2.97044 74.4709 3.38133 74.4855 3.79466C74.5123 4.19887 74.4913 4.60625 74.4913 5.03902C74.596 5.04492 74.6821 5.04919 74.7682 5.05472C75.1252 5.07763 75.4854 5.07859 75.8385 5.12914C76.0938 5.1503 76.3329 5.263 76.5118 5.4465C76.6906 5.62999 76.7971 5.87193 76.8116 6.12773C76.8358 6.32131 76.8342 6.51723 76.8068 6.71038C76.7888 6.96592 76.6791 7.20634 76.4979 7.38745C76.3167 7.56857 76.0763 7.6782 75.8207 7.69621C75.4913 7.74142 75.1562 7.74561 74.8236 7.76759C74.7199 7.77444 74.616 7.77914 74.4919 7.78593V8.09805C74.4919 9.92116 74.4944 11.7443 74.4886 13.5674C74.4932 13.7865 74.4673 14.0053 74.4114 14.2172C74.3185 14.5503 74.1081 14.8385 73.8192 15.0283C73.5302 15.2182 73.1822 15.297 72.8396 15.2501C72.4929 15.206 72.1733 15.0396 71.9383 14.7809C71.7033 14.5221 71.5684 14.188 71.5579 13.8386C71.5395 13.1228 71.5504 12.4063 71.5499 11.6901C71.5492 10.4855 71.5492 9.28096 71.5498 8.0764V7.79744C71.2687 7.7675 71.0013 7.75344 70.7392 7.70852C70.5157 7.67153 70.3053 7.57867 70.1273 7.43858C69.9494 7.29848 69.8097 7.11569 69.7213 6.90717C69.6329 6.69866 69.5987 6.47118 69.6217 6.24588C69.6448 6.02058 69.7244 5.80476 69.8532 5.61846C69.9515 5.47756 70.0794 5.35972 70.2278 5.27312C70.3762 5.18651 70.5417 5.1332 70.7127 5.11689C70.9764 5.07531 71.2442 5.05933 71.5499 5.02787Z" fill="#19191A"/>
<path d="M65.5961 5.8302C65.864 5.59857 66.1044 5.36629 66.3697 5.16715C66.7171 4.90518 67.1381 4.7591 67.5731 4.74959C67.8139 4.74064 68.0535 4.78896 68.272 4.89057C68.4905 4.99217 68.6818 5.14418 68.8302 5.33409C68.9786 5.524 69.0798 5.7464 69.1255 5.98302C69.1712 6.21964 69.1602 6.46374 69.0932 6.69525C69.031 6.90324 68.9175 7.09224 68.7631 7.24491C68.6088 7.39758 68.4186 7.50901 68.2099 7.56897C67.7813 7.72306 67.3536 7.88313 66.9166 8.00987C66.0998 8.24676 65.7452 8.83765 65.6481 9.62503C65.6177 9.93269 65.6055 10.2419 65.6116 10.551C65.6075 11.5766 65.6074 12.6021 65.6113 13.6277C65.6261 13.9631 65.5416 14.2954 65.3682 14.5828C65.2015 14.8518 64.9511 15.0587 64.6555 15.1718C64.3599 15.2849 64.0354 15.2979 63.7317 15.2088C63.4335 15.1183 63.171 14.9368 62.9811 14.6898C62.7911 14.4427 62.6832 14.1424 62.6724 13.831C62.6567 13.4083 62.6667 12.9846 62.6666 12.5613C62.6664 10.5509 62.6659 8.54042 62.6652 6.52996C62.6508 6.18605 62.7454 5.84636 62.9356 5.55948C63.0822 5.36129 63.274 5.20092 63.4949 5.0917C63.7159 4.98249 63.9598 4.92758 64.2063 4.93153C64.4527 4.93548 64.6947 4.99817 64.9121 5.11441C65.1295 5.23065 65.316 5.39707 65.4561 5.59986C65.5047 5.67382 65.5482 5.75115 65.5961 5.8302Z" fill="#19191A"/>
<path d="M93.9634 10.9491C94.463 10.3618 94.9513 9.76434 95.4654 9.18992C95.9701 8.62594 96.5121 8.09521 97.0155 7.53016C97.2537 7.26307 97.4625 6.97104 97.638 6.65915C97.9551 6.09288 97.8048 5.659 97.2214 5.37624C96.5891 5.08749 95.9034 4.93423 95.2083 4.92632C93.4436 4.86261 91.6772 4.84716 89.9115 4.80779C87.9872 4.76488 86.0729 4.62618 84.2026 4.13263C82.939 3.79913 81.7509 3.30674 80.7644 2.41328C80.0668 1.78154 79.6029 0.985187 79.1157 0.116211C79.4853 0.442324 79.7922 0.730149 80.1168 0.996443C81.3067 1.97275 82.7016 2.4818 84.1937 2.76485C86.0083 3.07414 87.8452 3.23436 89.686 3.2439C91.4929 3.28751 93.3008 3.28124 95.1082 3.30672C96.4106 3.32509 97.716 3.33487 98.9978 3.60386C99.3634 3.67978 99.718 3.80137 100.053 3.96577C100.496 4.1857 100.604 4.55889 100.407 5.01724C100.145 5.5633 99.7662 6.04515 99.2975 6.42866C97.9864 7.6 96.6548 8.74861 95.3309 9.90567C94.957 10.2325 94.5822 10.5583 94.2066 10.8833C94.151 10.9314 94.0911 10.9745 94.0331 11.0199L93.9634 10.9491Z" fill="#19191A"/>
<path d="M90.1612 13.8738C90.1627 13.6722 90.2039 13.4728 90.2825 13.2872C90.3611 13.1015 90.4756 12.9331 90.6192 12.7917C90.7629 12.6502 90.9331 12.5385 91.12 12.4628C91.3068 12.3871 91.5068 12.349 91.7084 12.3506C92.1115 12.3564 92.4962 12.5197 92.7804 12.8057C93.0645 13.0916 93.2254 13.4774 93.2286 13.8805C93.2264 14.2877 93.0634 14.6775 92.7751 14.9651C92.4868 15.2526 92.0965 15.4146 91.6893 15.4158C91.4877 15.415 91.2882 15.3745 91.1022 15.2966C90.9163 15.2187 90.7475 15.1048 90.6056 14.9616C90.4636 14.8184 90.3513 14.6486 90.2751 14.462C90.1988 14.2753 90.1601 14.0754 90.1612 13.8738Z" fill="#19191A"/>
<path d="M86.23 13.8733C86.232 14.0748 86.194 14.2748 86.1183 14.4617C86.0427 14.6486 85.9308 14.8186 85.7891 14.962C85.6474 15.1054 85.4787 15.2194 85.2928 15.2973C85.1068 15.3752 84.9073 15.4156 84.7057 15.416C84.3029 15.4165 83.9161 15.2581 83.6292 14.9753C83.3423 14.6926 83.1784 14.3081 83.173 13.9053C83.1699 13.7038 83.2066 13.5036 83.281 13.3162C83.3554 13.1289 83.4661 12.9581 83.6066 12.8137C83.7472 12.6692 83.915 12.554 84.1002 12.4745C84.2855 12.3951 84.4846 12.353 84.6862 12.3507C84.8878 12.3484 85.0878 12.3861 85.2747 12.4615C85.4617 12.537 85.6318 12.6487 85.7754 12.7903C85.9189 12.9318 86.033 13.1004 86.111 13.2863C86.189 13.4722 86.2295 13.6717 86.23 13.8733Z" fill="#19191A"/>
<path d="M20.1675 6.88333C19.4546 5.76096 18.5038 4.96703 17.1412 4.79007C15.9575 4.63636 14.8856 4.85951 14.0544 5.80094C14.0411 5.81608 14.0125 5.81778 13.9821 5.82904C13.8164 5.45992 13.5132 5.17003 13.137 5.02104C12.1395 4.66902 11.1595 5.38284 11.1573 6.4892C11.1496 10.2665 11.1488 14.0439 11.1549 17.8213C11.1423 18.0916 11.2029 18.3603 11.3304 18.599C11.4579 18.8377 11.6476 19.0375 11.8793 19.1773C12.0289 19.2564 12.1845 19.3235 12.3448 19.3781H12.8822C13.1141 19.3284 13.3296 19.2208 13.5086 19.0654C13.6876 18.9099 13.8244 18.7115 13.906 18.4889C13.9922 18.2609 14.0577 18.0256 14.1015 17.7858C14.2533 16.9521 14.1631 16.114 14.1281 15.2771C14.1198 15.08 14.1269 14.8823 14.1269 14.6646C14.1782 14.6974 14.2118 14.7174 14.244 14.7397C14.9985 15.2653 15.9106 15.516 16.8277 15.4499C17.7449 15.3839 18.6116 15.0051 19.2831 14.3768C21.2696 12.5197 21.6596 9.23274 20.1675 6.88333ZM17.7661 11.586C17.7301 11.6517 17.6909 11.7166 17.6485 11.7805C16.9205 12.878 15.2798 12.9013 14.5829 11.7866C14.2518 11.2965 14.0721 10.7199 14.0659 10.1285C14.0598 9.53707 14.2275 8.95689 14.5483 8.46C14.7123 8.19105 14.9428 7.96886 15.2175 7.81487C15.4923 7.66088 15.8022 7.58028 16.1171 7.58083C16.4321 7.58139 16.7417 7.66308 17.0159 7.81803C17.2902 7.97299 17.5199 8.19599 17.6829 8.46552C17.7602 8.58712 17.8274 8.71481 17.884 8.84732C18.0462 9.24149 18.1252 9.66492 18.1161 10.0911C18.1298 10.6112 18.0093 11.126 17.7661 11.586Z" fill="#19191A"/>
<path d="M61.6337 6.44371C61.6347 6.11133 61.5264 5.78783 61.3254 5.52305C61.1245 5.25827 60.8421 5.0669 60.5217 4.97839C60.1999 4.89161 59.858 4.9195 59.5545 5.05727C59.251 5.19503 59.0049 5.4341 58.8584 5.73346C58.8479 5.75266 58.8363 5.77126 58.8238 5.78918C58.4595 5.50622 58.0738 5.25188 57.6703 5.02847C56.3044 4.39692 54.4798 4.80085 53.3476 5.94075C51.3462 7.95576 51.1595 11.4966 52.9303 13.7671C53.9045 15.0161 55.1698 15.5853 56.7515 15.4213C57.1444 15.3837 57.5259 15.2688 57.8743 15.0833C58.2226 14.8978 58.5309 14.6453 58.7813 14.3403C58.8279 14.4184 58.8644 14.4795 58.9007 14.5407C59.0333 14.7867 59.2377 14.9866 59.4866 15.1139C59.7355 15.2411 60.0172 15.2896 60.2944 15.253C60.5738 15.2385 60.842 15.1385 61.0627 14.9664C61.2833 14.7944 61.4458 14.5587 61.528 14.2912C61.6015 14.0675 61.6367 13.833 61.6321 13.5976C61.6404 11.8478 61.6367 10.098 61.6366 8.34814C61.6365 7.71333 61.6433 7.07839 61.6337 6.44371ZM58.206 11.8024C58.0338 12.0502 57.8042 12.2526 57.5367 12.3923C57.2693 12.532 56.972 12.6049 56.6703 12.6047C56.3685 12.6045 56.0713 12.5313 55.8041 12.3913C55.5368 12.2513 55.3074 12.0486 55.1355 11.8007C54.5096 10.8762 54.5089 9.34554 55.1338 8.41965C55.3029 8.16406 55.5327 7.95439 55.8027 7.80943C56.0727 7.66448 56.3745 7.58876 56.6809 7.58905C56.9874 7.58935 57.289 7.66566 57.5587 7.81114C57.8284 7.95661 58.0578 8.16672 58.2264 8.42264C58.5448 8.91912 58.7044 9.50084 58.6838 10.0903C58.7031 10.6964 58.5364 11.2939 58.206 11.8024Z" fill="#19191A"/>
<path d="M30.2086 11.0716C30.4767 11.0725 30.7443 11.0462 31.0072 10.9933C31.2047 10.9676 31.3866 10.8724 31.5203 10.7249C31.6541 10.5773 31.7309 10.387 31.7371 10.1879C31.7779 9.71116 31.7592 9.2312 31.6815 8.75909C31.3096 6.94917 30.3066 5.58903 28.5294 5.0001C26.7526 4.4113 25.0761 4.74194 23.6611 6.02155C22.1767 7.36388 21.6621 9.07288 21.9414 11.02C22.21 12.8923 23.1753 14.2919 24.9359 15.0629C25.9978 15.5278 27.1216 15.531 28.2478 15.3529C29.1056 15.2403 29.9331 14.961 30.6837 14.5307C31.0276 14.3391 31.3081 14.0513 31.4907 13.7025C31.9186 12.8347 31.3557 11.7875 30.4524 11.7998C30.2179 11.8184 29.9883 11.8771 29.7736 11.9733C29.2877 12.1589 28.8203 12.3976 28.327 12.5582C27.8889 12.7181 27.4196 12.774 26.9563 12.7215C26.4929 12.669 26.048 12.5095 25.6568 12.2556C25.4583 12.1314 25.2965 11.9565 25.1879 11.7491C25.0793 11.5416 25.0279 11.309 25.039 11.0751H25.3489C26.9688 11.0751 28.5887 11.0785 30.2086 11.0716ZM26.8752 7.26006C27.8271 7.23723 28.8203 8.12257 28.8122 9.00994H25.06C25.0057 8.19122 25.9576 7.28207 26.8752 7.26006Z" fill="#19191A"/>
<path d="M10.1334 8.23258C9.50113 6.32562 8.23958 5.07024 6.18941 4.80126C4.1649 4.53564 2.51447 5.21568 1.37158 6.95185C0.547196 8.20421 0.385304 9.60194 0.571546 11.0565C0.834102 13.1068 2.44126 15.3319 5.16603 15.4461C6.72022 15.5113 8.04891 15.0337 9.0867 13.8418C10.0252 12.7641 10.414 11.4922 10.4099 10.0822L10.478 10.0704C10.3675 9.45638 10.3278 8.81883 10.1334 8.23258ZM6.99431 11.7735C6.30107 12.9034 4.64494 12.883 3.91387 11.7746C3.83107 11.6492 3.75896 11.517 3.6983 11.3795C3.52458 10.9702 3.43981 10.5286 3.4496 10.0841C3.44033 9.64567 3.52527 9.21036 3.69869 8.80759C3.75936 8.6722 3.83151 8.54226 3.91436 8.41918C4.08203 8.15985 4.3125 7.94708 4.58436 7.80061C4.85623 7.65414 5.16068 7.57873 5.46948 7.58136C5.77827 7.584 6.0814 7.66459 6.35073 7.81567C6.62006 7.96675 6.84686 8.18341 7.01009 8.44556C7.33306 8.94109 7.50369 9.52043 7.50089 10.1119C7.49809 10.7034 7.32196 11.2811 6.99431 11.7735Z" fill="#19191A"/>
</svg>
