<svg width="101" height="21" viewBox="0 0 101 21" fill="none" xmlns="http://www.w3.org/2000/svg">
<path d="M21.3431 17.4835C21.7998 18.6041 22.2414 19.6878 22.7007 20.8147C20.7429 19.7257 18.836 18.6664 16.9315 17.6029C16.7881 17.5209 16.6254 17.4787 16.4603 17.4809C12.156 17.4842 7.85161 17.4848 3.54726 17.4828C2.09276 17.4825 0.728029 16.2506 0.553586 14.8044C0.519051 14.5021 0.502764 14.1979 0.504798 13.8936C0.504338 10.5857 0.504051 7.2778 0.503954 3.96989C0.4874 3.50313 0.573746 3.03844 0.756853 2.60877C0.93996 2.17911 1.21534 1.79498 1.56349 1.48364C2.09959 0.976396 2.80812 0.691353 3.54614 0.686014C12.812 0.679058 22.078 0.677838 31.3439 0.682355C32.7754 0.682607 34.1488 1.89711 34.341 3.30273C34.3763 3.57687 34.3929 3.8531 34.3905 4.1295C34.3909 7.51133 34.3909 10.8932 34.3907 14.275C34.4035 15.0528 34.1304 15.8082 33.6231 16.398C33.1158 16.9877 32.4096 17.3707 31.6386 17.4741C31.5466 17.4839 31.454 17.4869 31.3616 17.4829C28.1403 17.4834 24.919 17.4836 21.6977 17.4835C21.5963 17.4835 21.4949 17.4835 21.3431 17.4835Z" fill="#6F7073"/>
<path d="M59.9127 7.46433C59.7284 8.20548 59.5568 8.88346 59.3916 9.56297C59.0552 10.9464 58.7213 12.3305 58.3901 13.7152C58.3593 13.8443 58.3084 13.897 58.1679 13.8942C57.7146 13.8852 57.2607 13.8826 56.8075 13.8955C56.779 13.9007 56.7498 13.9 56.7215 13.8933C56.6933 13.8867 56.6668 13.8742 56.6437 13.8568C56.6205 13.8394 56.6012 13.8173 56.587 13.792C56.5728 13.7668 56.564 13.7388 56.5612 13.71C56.0605 11.7287 55.559 9.74769 55.0565 7.76689C55.0352 7.68259 55.0098 7.59933 54.9654 7.44161C54.8225 8.92135 54.6898 10.319 54.5514 11.7162C54.4842 12.3941 54.4032 13.0708 54.3367 13.7488C54.3267 13.8503 54.3105 13.8937 54.1976 13.893C53.4849 13.8886 52.7722 13.8871 52.0596 13.8941C51.9169 13.8955 51.925 13.839 51.9386 13.7314C52.0231 13.0658 52.0959 12.3987 52.1812 11.7332C52.2828 10.9401 52.3971 10.1487 52.4983 9.35562C52.5996 8.56245 52.6872 7.76755 52.7888 6.97444C52.8882 6.1997 53.003 5.42691 53.0981 4.65169C53.1157 4.50823 53.1575 4.4745 53.2974 4.47548C54.2507 4.48214 55.2042 4.48494 56.1574 4.47303C56.1836 4.46885 56.2105 4.47031 56.2361 4.47733C56.2617 4.48435 56.2856 4.49676 56.3061 4.51373C56.3265 4.5307 56.3431 4.55183 56.3548 4.57573C56.3664 4.59963 56.3728 4.62574 56.3736 4.65231C56.6398 5.91361 56.9039 7.17537 57.1658 8.4376C57.2474 8.83137 57.3199 9.22704 57.4121 9.70185C57.6153 8.59322 57.8144 7.56414 58.0552 6.54383C58.2041 5.91287 58.3544 5.28219 58.4977 4.64996C58.5237 4.53534 58.5577 4.47537 58.6925 4.47609C59.6921 4.48139 60.6917 4.48332 61.6913 4.47438C61.8463 4.47299 61.856 4.56533 61.8692 4.65952C61.9529 5.26008 62.0293 5.86165 62.1106 6.46255C62.2325 7.36363 62.3554 8.26459 62.4793 9.16541C62.5978 10.0394 62.7156 10.9135 62.8325 11.7877C62.9172 12.4157 62.9963 13.0447 63.0915 13.6711C63.116 13.8323 63.1138 13.8988 62.9177 13.8956C62.2052 13.8836 61.4923 13.8856 60.7797 13.8949C60.6189 13.897 60.5726 13.8355 60.5587 13.6921C60.4482 12.5469 60.3371 11.4017 60.2187 10.2572C60.1249 9.35094 60.0206 8.44575 59.9127 7.46433Z" fill="#19191A"/>
<path d="M71.4088 7.52861C70.9174 9.57767 70.4262 11.6268 69.9354 13.676C69.933 13.7112 69.9231 13.7454 69.9062 13.7764C69.8893 13.8073 69.8659 13.8342 69.8377 13.8553C69.8094 13.8763 69.7769 13.891 69.7424 13.8983C69.7079 13.9056 69.6723 13.9054 69.6379 13.8976C69.2411 13.8762 68.8417 13.8783 68.4445 13.8962C68.2278 13.906 68.1301 13.8562 68.073 13.6255C67.5691 11.5904 67.0451 9.55688 66.501 7.525C66.4451 8.06822 66.3892 8.61144 66.3333 9.15466C66.2471 9.99725 66.1614 10.8399 66.0762 11.6826C66.0114 12.3331 65.9415 12.9833 65.8945 13.6352C65.8802 13.8342 65.8308 13.901 65.6214 13.8965C64.9553 13.8821 64.2886 13.8871 63.6222 13.8942C63.4747 13.8958 63.4381 13.8666 63.459 13.7104C63.6094 12.5901 63.7456 11.4679 63.8913 10.3469C64.0323 9.26236 64.183 8.17907 64.3225 7.09436C64.4246 6.30127 64.5183 5.50707 64.6094 4.71264C64.6276 4.55378 64.6615 4.47111 64.8571 4.47369C65.7918 4.48601 66.7267 4.48281 67.6615 4.47569C67.8177 4.4745 67.8704 4.51175 67.9067 4.67531C68.2656 6.29114 68.6229 7.90704 68.8999 9.53946C68.9024 9.55425 68.9179 9.56684 68.9556 9.6213C69.0302 9.24633 69.1027 8.90573 69.1651 8.56327C69.4058 7.24132 69.7359 5.93959 70.0434 4.63258C70.0753 4.49666 70.1258 4.47724 70.2415 4.47757C71.2226 4.48041 72.2038 4.48236 73.1849 4.47599C73.3441 4.47496 73.3748 4.53009 73.3938 4.68094C73.507 5.58304 73.6395 6.48272 73.7611 7.38379C73.8802 8.26696 73.992 9.15114 74.111 10.0343C74.2312 10.9265 74.3571 11.8179 74.479 12.7098C74.525 13.0467 74.5646 13.3844 74.6115 13.7212C74.6289 13.8459 74.6054 13.8969 74.4581 13.8951C73.727 13.8863 72.9957 13.8877 72.2645 13.8944C72.1421 13.8955 72.114 13.8586 72.1025 13.7433C72.0366 13.0839 71.9598 12.4256 71.8886 11.7668C71.8015 10.9615 71.7156 10.1562 71.6308 9.35075C71.5673 8.74702 71.5068 8.14297 71.445 7.53907L71.4088 7.52861Z" fill="#19191A"/>
<path d="M95.3306 9.18237C95.3306 7.69457 95.334 6.20675 95.3262 4.719C95.3252 4.53321 95.3617 4.47298 95.5616 4.47414C97.1261 4.48319 98.6906 4.48339 100.255 4.47474C100.446 4.47379 100.507 4.51795 100.502 4.71594C100.487 5.23303 100.486 5.75111 100.502 6.26813C100.508 6.47217 100.438 6.50786 100.252 6.50509C99.53 6.49434 98.8077 6.50695 98.0858 6.49615C97.9141 6.49359 97.8686 6.53475 97.8743 6.70718C97.8886 7.13179 97.8892 7.55755 97.8743 7.98211C97.8677 8.16997 97.9087 8.233 98.1103 8.22794C98.7024 8.21309 99.2953 8.22803 99.8876 8.21919C100.054 8.21671 100.127 8.24037 100.121 8.43626C100.104 8.94397 100.105 9.45289 100.121 9.96067C100.126 10.1425 100.066 10.1698 99.9044 10.1673C99.2935 10.1581 98.6824 10.1691 98.0715 10.1599C97.9138 10.1575 97.8713 10.2018 97.8751 10.3581C97.8862 10.8014 97.8862 11.2449 97.8752 11.6886C97.8714 11.8437 97.9114 11.8884 98.0702 11.8865C98.8014 11.8777 99.533 11.8908 100.264 11.8773C100.465 11.8736 100.506 11.9337 100.502 12.1226C100.488 12.6489 100.49 13.176 100.501 13.7026C100.504 13.8628 100.455 13.8954 100.301 13.8948C98.7091 13.8887 97.1168 13.8864 95.5245 13.897C95.3274 13.8983 95.3282 13.8174 95.3285 13.6735C95.3319 12.1764 95.3326 10.6794 95.3306 9.18237Z" fill="#19191A"/>
<path d="M75.3747 9.18862C75.3747 7.70134 75.3777 6.21405 75.3706 4.7268C75.3698 4.55205 75.4066 4.49854 75.5922 4.49953C77.1562 4.50784 78.7202 4.50825 80.2842 4.50076C80.4531 4.50011 80.521 4.52617 80.5152 4.7189C80.4994 5.24498 80.501 5.77207 80.5148 6.29827C80.5193 6.47212 80.4725 6.5106 80.3039 6.50814C79.61 6.49803 78.9152 6.5205 78.222 6.49577C77.9438 6.48584 77.8928 6.5698 77.9087 6.82455C77.9293 7.2213 77.9299 7.61883 77.9103 8.01562C77.9037 8.184 77.9413 8.23072 78.1144 8.22738C78.7157 8.21575 79.3177 8.23466 79.9187 8.21667C80.1371 8.21014 80.175 8.27986 80.1691 8.47766C80.1545 8.96683 80.1572 9.45688 80.1681 9.94624C80.1719 10.1181 80.1372 10.1806 79.9469 10.1762C79.3365 10.1621 78.7254 10.1754 78.1147 10.1678C77.9631 10.1659 77.9058 10.1976 77.9107 10.3644C77.9238 10.8075 77.9256 11.2515 77.9102 11.6944C77.9039 11.8735 77.9602 11.9068 78.1262 11.9047C78.848 11.8956 79.5699 11.9061 80.2917 11.8971C80.4723 11.8949 80.5535 11.9223 80.5468 12.1328C80.5302 12.6588 80.5338 13.1859 80.5456 13.7122C80.5496 13.888 80.4934 13.9269 80.3256 13.9262C78.7431 13.9201 77.1605 13.9169 75.5781 13.929C75.3538 13.9307 75.3734 13.8229 75.3735 13.6782C75.3753 12.1817 75.3757 10.6851 75.3747 9.18862Z" fill="#19191A"/>
<path d="M94.6089 6.64948C94.2097 6.54798 93.8027 6.4803 93.3922 6.44714C92.1144 6.36909 91.236 7.27687 91.012 8.38201C90.8371 9.24518 90.8825 10.1086 91.396 10.8754C91.9397 11.6873 92.7377 11.9531 93.6761 11.8638C93.993 11.8319 94.3057 11.7665 94.6089 11.6687C94.6089 12.3908 94.6051 13.0998 94.6124 13.8087C94.6136 13.9332 94.5414 13.9331 94.4624 13.9512C92.6214 14.373 90.9565 14.0843 89.5745 12.7154C88.7888 11.9372 88.3987 10.9713 88.2686 9.88178C88.1381 8.78929 88.217 7.72483 88.7455 6.74799C89.0929 6.06451 89.607 5.47971 90.2404 5.04771C90.8738 4.61572 91.6059 4.35049 92.369 4.27659C93.0304 4.20583 93.6984 4.22842 94.3535 4.34369C94.5311 4.37106 94.6235 4.43793 94.6164 4.65737C94.5955 5.31262 94.6089 5.96894 94.6089 6.64948Z" fill="#19191A"/>
<path d="M42.8903 11.6895C42.8903 12.3881 42.8875 13.0806 42.893 13.773C42.8939 13.8845 42.8615 13.9231 42.7522 13.9524C40.2438 14.6231 37.3439 13.4487 36.667 10.5084C36.3635 9.19016 36.4054 7.89047 37.0695 6.68392C37.8406 5.28279 39.042 4.48103 40.6441 4.27719C41.305 4.20481 41.9728 4.22643 42.6277 4.34139C42.8055 4.36897 42.9056 4.42244 42.898 4.64898C42.8761 5.30382 42.8903 5.95986 42.8903 6.6406C42.4736 6.54624 42.0508 6.48081 41.6251 6.44479C41.1342 6.42156 40.6495 6.56282 40.2479 6.8462C39.8463 7.12959 39.5507 7.53888 39.408 8.00923C39.0822 8.97636 39.1069 9.95096 39.6639 10.8419C40.1876 11.6794 41.0004 11.953 41.9502 11.8645C42.2586 11.8357 42.5618 11.7523 42.8903 11.6895Z" fill="#19191A"/>
<path d="M4.62118 6.22506C4.61673 6.24735 4.61822 6.27042 4.62551 6.29194C4.63281 6.31346 4.64565 6.33269 4.66274 6.34767C4.72411 6.41189 4.69763 6.48384 4.68102 6.55491C4.67562 6.57715 4.67641 6.60044 4.68329 6.62226C4.69016 6.64409 4.70287 6.66362 4.72004 6.67875C4.77764 6.74362 4.7528 6.81577 4.73849 6.887L4.90161 7.77943C5.02945 8.03909 5.02808 8.32902 5.09219 8.60358C5.1549 8.84252 5.20111 9.0855 5.23049 9.33079C5.31773 9.91308 5.43842 10.4899 5.59193 11.0583C5.60387 11.1114 5.61346 11.1651 5.62414 11.2185C5.7539 11.4205 5.72283 11.1495 5.78843 11.1629C6.06034 10.8374 6.17554 10.424 6.40228 10.0725C6.4789 9.9398 6.54823 9.80301 6.60996 9.66276C6.60062 9.55175 6.67892 9.47689 6.7236 9.38815C6.9209 9.1102 7.08797 8.81198 7.22199 8.49857C7.21075 8.38687 7.29029 8.31236 7.33502 8.22359C7.51332 7.98289 7.66159 7.72134 7.77654 7.44473C7.7672 7.3337 7.84548 7.25881 7.89022 7.1701C8.27968 6.60983 8.51468 5.96371 8.88234 5.39133C8.8753 5.30072 8.9384 5.26517 9.0066 5.23363L9.12042 5.12025C9.15262 5.04475 9.21307 4.98482 9.28885 4.95327C9.38388 4.94996 9.47695 4.92533 9.56118 4.8812C9.62423 4.83826 9.6973 4.81233 9.77331 4.80594C9.84933 4.79955 9.92571 4.8129 9.99504 4.84471C10.2579 4.90586 10.4881 5.06389 10.6396 5.28725C10.7447 5.33586 10.7452 5.44275 10.7765 5.5324C11.1249 7.1725 11.4654 8.81467 12.0692 10.387C12.1114 10.4117 12.1454 10.4481 12.1671 10.4918C12.1888 10.5356 12.1973 10.5847 12.1915 10.6332C12.1939 10.5177 12.1382 10.389 12.2317 10.2844C12.2759 10.2147 12.2914 10.1306 12.2748 10.0498C12.2556 10.0079 12.2471 9.96205 12.2499 9.91614C12.2526 9.87023 12.2666 9.82571 12.2906 9.78648C12.3106 9.76135 12.3245 9.73194 12.3312 9.70055C12.3379 9.66916 12.3372 9.63665 12.3292 9.60556C12.3102 9.51297 12.278 9.41945 12.3486 9.33322C12.3649 9.31936 12.3768 9.30105 12.3829 9.28052C12.389 9.26 12.3889 9.23815 12.3828 9.21764C12.3659 9.12982 12.3366 9.04113 12.4009 8.95896C12.4774 8.79434 12.4465 8.61047 12.4941 8.44068C12.4781 8.40736 12.4711 8.37043 12.4737 8.33355C12.4764 8.29668 12.4887 8.26114 12.5093 8.23047C12.6382 7.61213 12.762 6.99266 12.898 6.37588C12.975 6.02698 13.072 5.68249 13.16 5.33602C13.1467 5.20205 13.1794 5.06754 13.2528 4.95468L13.3289 4.78196C13.319 4.73316 13.3219 4.68263 13.3371 4.63522C13.3523 4.58781 13.3795 4.54511 13.4159 4.51119C13.5546 4.17675 13.6933 3.8423 13.8319 3.50786C13.8297 3.42921 13.8546 3.35218 13.9023 3.28965L13.8976 3.29624C13.9517 3.22 13.9648 3.1147 14.0599 3.06735L14.2848 2.79028C14.3087 2.73818 14.3471 2.69408 14.3955 2.66328C14.4438 2.63248 14.5 2.61628 14.5573 2.61663C14.7522 2.54331 14.9614 2.51612 15.1686 2.5372C15.3757 2.55828 15.5751 2.62705 15.7512 2.73812C15.8256 2.76429 15.8929 2.8071 15.9482 2.86329C16.0034 2.91947 16.0451 2.98754 16.07 3.0623C16.1833 3.25747 16.2427 3.47927 16.242 3.70496C16.2414 3.93065 16.1808 4.15211 16.0664 4.34665C15.8539 4.75139 15.686 5.17803 15.5657 5.61905C15.5744 5.67849 15.5691 5.73913 15.5503 5.79617C15.5315 5.85322 15.4997 5.9051 15.4573 5.94771L15.3993 6.17343C15.4319 6.29215 15.3598 6.38817 15.3297 6.4933C15.1938 6.93437 15.0893 7.38449 15.0169 7.84031C15.0276 7.91074 15.057 7.98312 14.9953 8.04596C14.8523 8.65361 14.7463 9.26938 14.678 9.88987C14.6947 9.92326 14.7023 9.96043 14.7001 9.99767C14.6979 10.0349 14.686 10.0709 14.6655 10.1021C14.6451 10.1261 14.6307 10.1546 14.6234 10.1852C14.6162 10.2159 14.6163 10.2478 14.6239 10.2784C14.641 10.3209 14.6484 10.3667 14.6457 10.4125C14.6429 10.4583 14.63 10.5028 14.6078 10.543C14.5878 10.5678 14.5739 10.5968 14.567 10.6279C14.5601 10.659 14.5604 10.6913 14.5681 10.7222C14.5846 10.7653 14.592 10.8114 14.5898 10.8576C14.5876 10.9037 14.5758 10.9489 14.5551 10.9902C14.5328 11.0238 14.5174 11.0615 14.51 11.1011C14.5025 11.1408 14.5032 11.1815 14.5118 11.2209C14.5303 11.2724 14.5383 11.3272 14.5353 11.3818C14.5324 11.4365 14.5185 11.49 14.4946 11.5393C14.4727 11.5741 14.458 11.613 14.4515 11.6536C14.445 11.6942 14.4467 11.7356 14.4566 11.7756C14.4924 11.8991 14.4875 12.0308 14.4427 12.1514C14.3934 12.2593 14.3789 12.3799 14.4011 12.4965C14.4216 12.6953 14.4277 12.8953 14.4193 13.095C14.3801 13.5072 14.3801 13.9223 14.4193 14.3346C14.3968 14.5514 14.4659 14.7737 14.3797 14.9866C14.2668 15.4159 14.065 15.7735 13.6149 15.9306C13.4706 15.9747 13.3164 15.9741 13.1724 15.9289L12.7229 15.7182C12.6312 15.7281 12.5972 15.6607 12.56 15.5974L12.1166 15.1504C12.0651 15.1268 12.0191 15.0928 11.9815 15.0504C11.9439 15.0081 11.9155 14.9583 11.8982 14.9044C11.8983 14.8858 11.8925 14.8676 11.8816 14.8525C11.8707 14.8373 11.8553 14.8261 11.8376 14.8202C11.7972 14.8027 11.7614 14.7759 11.7331 14.742C11.7049 14.708 11.6851 14.6679 11.6753 14.6249C11.1933 13.9458 10.7695 13.2271 10.4087 12.4765C10.0846 11.7778 9.80329 11.06 9.56619 10.3271C9.53689 10.2513 9.50364 10.1771 9.46658 10.1048C9.4174 10.0143 9.38341 9.91646 9.36597 9.81503C9.33494 9.72877 9.28636 9.7349 9.22284 9.76939C9.10266 9.94075 9.0098 10.1297 8.94758 10.3296C8.80329 10.6704 8.63401 11 8.44111 11.3158C7.97699 12.1291 7.61465 12.994 7.16853 13.8161C6.98206 14.1597 6.76741 14.4881 6.56557 14.8234C6.58772 14.9141 6.50342 14.9433 6.46427 14.9986C6.40079 15.0657 6.38812 15.1781 6.27967 15.2052C6.05414 15.4652 5.79077 15.6898 5.49841 15.8714C5.44253 15.914 5.36896 15.9172 5.31097 15.9552C5.22969 15.9459 5.14208 15.9874 5.06751 15.9249C4.49308 15.6675 4.31241 15.1211 4.13197 14.5973C3.80402 13.6381 3.53558 12.6597 3.32817 11.6675C3.31801 11.6421 3.30382 11.6185 3.28615 11.5976C3.25667 11.473 3.17076 11.3584 3.21867 11.22C3.01512 10.186 2.81121 9.152 2.60694 8.11812C2.59738 8.09261 2.58393 8.06873 2.56707 8.04732C2.50726 7.97989 2.54858 7.87546 2.48032 7.81105C2.47148 7.59198 2.43351 7.37508 2.36741 7.16604C2.35972 7.0762 2.36462 6.98572 2.38196 6.89724C2.34973 6.63171 2.29918 6.36873 2.23067 6.11017C2.21151 6.07878 2.20002 6.04332 2.19714 6.00666C2.19427 5.97 2.20008 5.93318 2.2141 5.89919C2.20552 5.74329 2.1744 5.58946 2.12172 5.44248C2.06494 5.37662 2.08782 5.30458 2.10541 5.23295C2.11143 5.21071 2.11105 5.18722 2.10431 5.16518C2.09757 5.14315 2.08473 5.12347 2.06729 5.10841C2.0033 5.04712 2.0565 4.94213 1.98334 4.88424C1.96082 4.77597 2.00441 4.66184 1.95401 4.55607L1.95718 4.56208C1.8999 4.38252 1.89969 4.18962 1.95658 4.00993C2.02153 3.98039 2.00558 3.92062 2.00966 3.86833C2.04644 3.75882 2.05534 3.63415 2.1731 3.56864C2.31379 3.40812 2.48354 3.27562 2.67343 3.17813C2.72941 3.14133 2.79245 3.11659 2.85852 3.10549C2.92459 3.09439 2.99225 3.09717 3.05719 3.11366L3.34142 3.11086C3.44035 3.08891 3.54336 3.09394 3.63968 3.12541C3.736 3.15689 3.82209 3.21366 3.88897 3.2898C4.11722 3.51019 4.25986 3.80444 4.29146 4.12016C4.3736 4.34723 4.41783 4.58626 4.42239 4.82768C4.47141 4.95426 4.48366 5.09211 4.45774 5.22535C4.45321 5.24737 4.45462 5.27021 4.46181 5.29151C4.46899 5.31282 4.4817 5.33183 4.49865 5.34661C4.51916 5.37729 4.5314 5.41275 4.53417 5.44955C4.53695 5.48635 4.53017 5.52325 4.51449 5.55666C4.50875 5.57896 4.50925 5.60241 4.51594 5.62445C4.52262 5.64649 4.53523 5.66627 4.55238 5.68164C4.61609 5.73737 4.56784 5.82245 4.60592 5.88491C4.64508 5.99418 4.6504 6.11272 4.62118 6.22506Z" fill="#FEFEFE"/>
<path d="M24.7165 10.7771C24.7333 10.6958 24.7192 10.6111 24.6769 10.5397C24.6208 10.1793 24.6201 9.81248 24.6748 9.4519C24.7184 9.36234 24.7337 9.26163 24.7187 9.16317C24.6846 8.9969 24.7033 8.82415 24.7721 8.66901L24.9341 7.99597C24.9183 7.86303 24.9485 7.72869 25.0195 7.61523C25.2298 7.08891 25.4787 6.57886 25.7641 6.08923C25.8924 5.89135 26.0276 5.69792 26.1597 5.50247C26.1624 5.38418 26.2541 5.33903 26.3375 5.28702L26.7836 4.84175C26.8167 4.7748 26.854 4.71315 26.9427 4.7164L27.3349 4.45153C27.3818 4.39499 27.4407 4.34959 27.5074 4.31861C27.574 4.28763 27.6467 4.27184 27.7201 4.27238C28.0508 4.15224 28.3931 4.06687 28.7415 4.01764C28.9698 3.95862 29.2098 3.96252 29.436 4.02892C29.5094 4.05367 29.5953 4.00834 29.6623 4.06891C30.0159 4.16343 30.3611 4.28695 30.6945 4.43822C31.1112 4.65388 31.4699 4.9668 31.74 5.35049C32.4874 6.38541 32.692 7.56341 32.6219 8.80893C32.6183 8.87317 32.6221 8.93783 32.6225 9.0023C32.6588 9.12432 32.6527 9.25502 32.6054 9.37319C32.5865 9.39945 32.5732 9.42934 32.5664 9.46096C32.5596 9.49258 32.5594 9.52527 32.5658 9.55698C32.5827 9.58999 32.5903 9.62698 32.5877 9.66396C32.5851 9.70095 32.5725 9.73654 32.5512 9.76689C32.379 10.6038 32.0854 11.4111 31.6796 12.1631C31.6802 12.2068 31.6691 12.2499 31.6475 12.288C31.6259 12.326 31.5946 12.3576 31.5567 12.3795C31.4131 12.5848 31.2695 12.7902 31.1259 12.9956C31.1291 13.0843 31.0685 13.1218 30.9994 13.1524C30.851 13.3015 30.7026 13.4505 30.5541 13.5996C30.5378 13.6406 30.5116 13.6769 30.4779 13.7054C30.4442 13.7338 30.404 13.7535 30.3609 13.7628L30.0538 13.9595C30.0235 14.0039 29.983 14.0404 29.9357 14.066C29.8884 14.0915 29.8356 14.1053 29.7819 14.1062C29.4275 14.2741 29.0478 14.3824 28.6582 14.4267C28.4278 14.4808 28.188 14.48 27.958 14.4243C27.5206 14.3478 27.0934 14.2215 26.6847 14.0479C26.4952 13.9585 26.3534 13.8068 26.166 13.7225C25.9463 13.6133 25.7677 13.436 25.6569 13.2171C25.2049 12.6165 24.9045 11.9155 24.7814 11.1739C24.7816 11.1094 24.7626 11.0462 24.7267 10.9925C24.7078 10.9601 24.697 10.9236 24.6952 10.8861C24.6935 10.8486 24.7008 10.8112 24.7165 10.7771Z" fill="#FEFEFE"/>
<path d="M5.23025 9.33065C5.06384 8.93682 5.05073 8.50775 4.94736 8.09931C4.92618 7.99356 4.91083 7.88673 4.90137 7.7793C5.08343 7.85207 5.01465 8.03383 5.04926 8.1602C5.1386 8.48624 5.18423 8.82405 5.2533 9.15591C5.26689 9.22122 5.2948 9.27945 5.23025 9.33065Z" fill="#995A8D"/>
<path d="M14.3924 14.3224C14.3297 13.9182 14.3295 13.5068 14.3917 13.1026C14.4095 13.0775 14.4278 13.0771 14.4467 13.1014V14.3234C14.4281 14.3471 14.41 14.3479 14.3924 14.3224Z" fill="#8F4981"/>
<path d="M8.44092 11.3159C8.58221 10.9737 8.75161 10.6438 8.94739 10.3296C8.88108 10.7063 8.64684 11.0064 8.48436 11.3392C8.48317 11.3416 8.46672 11.3394 8.45949 11.3354C8.4523 11.3299 8.44604 11.3233 8.44092 11.3159Z" fill="#934F86"/>
<path d="M24.6748 9.45223C24.6755 9.81483 24.6762 10.1774 24.6769 10.54C24.6514 10.5948 24.6169 10.6641 24.6156 10.5349C24.6115 10.137 24.6141 9.73897 24.6141 9.3291C24.6388 9.35111 24.6561 9.35927 24.6603 9.37182C24.6673 9.3982 24.6721 9.42509 24.6748 9.45223Z" fill="#883E7A"/>
<path d="M20.7803 4.05739C20.5447 4.04387 20.3092 4.03036 20.0736 4.01685C20.0372 4.01101 20.0008 4.00517 19.9644 3.99931C20.2373 3.98286 20.5111 3.888 20.7822 4.00826C20.8011 4.01992 20.8071 4.03108 20.8003 4.04176C20.7936 4.05216 20.787 4.05739 20.7803 4.05739Z" fill="#924E85"/>
<path d="M25.6572 13.2173L26.1663 13.7226C26.045 13.6895 25.9344 13.6255 25.8452 13.537C25.756 13.4484 25.6912 13.3383 25.6572 13.2173Z" fill="#904B83"/>
<path d="M4.39942 4.84027L4.2915 4.12012C4.48611 4.32889 4.43237 4.5921 4.44979 4.83971C4.44706 4.84387 4.44335 4.8473 4.43898 4.84969C4.43462 4.85208 4.42973 4.85336 4.42476 4.85341C4.41978 4.85347 4.41487 4.8523 4.41045 4.85C4.40603 4.84771 4.40224 4.84437 4.39942 4.84027Z" fill="#955388"/>
<path d="M29.448 4.05395C29.2125 4.04188 28.9771 4.02981 28.7416 4.01775C28.7002 4.01078 28.6587 4.00381 28.6172 3.99682C28.8975 3.98781 29.1766 3.88242 29.447 4.00952C29.466 4.01898 29.4725 4.02871 29.4665 4.03873C29.4604 4.04886 29.4543 4.05395 29.448 4.05395Z" fill="#934F86"/>
<path d="M15.9933 9.82985C15.9986 10.1813 16.0039 10.5328 16.0092 10.8844C15.8728 10.6532 15.9753 10.4015 15.9488 10.1607C15.9423 10.0505 15.942 9.94005 15.9481 9.82986C15.9631 9.80607 15.9782 9.80606 15.9933 9.82985Z" fill="#904B83"/>
<path d="M19.2933 14.4264C19.5253 14.4259 19.7573 14.4253 19.9894 14.4248C20.0136 14.4398 20.0689 14.4774 20.0432 14.4786C19.777 14.4909 19.51 14.4866 19.2433 14.4859C19.2396 14.4859 19.232 14.4676 19.233 14.4669C19.2525 14.4526 19.273 14.4396 19.2933 14.4264Z" fill="#8B437D"/>
<path d="M27.9581 14.4248C28.1916 14.4256 28.425 14.4264 28.6584 14.4272C28.6807 14.4423 28.7383 14.4785 28.7069 14.4796C28.455 14.4882 28.2025 14.4772 27.9502 14.4712C27.9459 14.4644 27.9442 14.4564 27.9451 14.4485C27.9481 14.4399 27.9525 14.432 27.9581 14.4248Z" fill="#8A417C"/>
<path d="M3.88935 3.28962C3.72396 3.18663 3.53608 3.12523 3.3418 3.11069C3.57186 3.02535 3.76655 3.04791 3.88935 3.28962Z" fill="#914C83"/>
<path d="M2.38725 7.16845C2.4868 7.37373 2.52774 7.6025 2.50556 7.82956C2.52049 7.84394 2.525 7.85779 2.5191 7.87111C2.51333 7.88415 2.50777 7.89068 2.50243 7.89068L2.33838 7.1679C2.35494 7.14437 2.37123 7.14455 2.38725 7.16845Z" fill="#98588C"/>
<path d="M9.22217 9.76945C9.25675 9.64132 9.3256 9.6149 9.38231 9.74334C9.42202 9.86078 9.45001 9.98186 9.46588 10.1048C9.32778 10.0342 9.39658 9.81377 9.22217 9.76945Z" fill="#914D84"/>
<path d="M12.2314 10.2846V10.683C12.1534 10.5994 12.0976 10.4977 12.0688 10.3871C12.1514 10.3794 12.1692 10.3235 12.1726 10.2533C12.1737 10.23 12.1843 10.1986 12.2151 10.2331C12.226 10.2453 12.2263 10.2671 12.2314 10.2846Z" fill="#8A417C"/>
<path d="M16.1632 11.4966C16.2094 11.6795 16.2556 11.8624 16.3018 12.0453C16.1851 11.8801 16.073 11.7138 16.1632 11.4966Z" fill="#904C83"/>
<path d="M16.8925 6.39307C16.8231 6.525 16.7536 6.65694 16.6842 6.78888C16.6643 6.70885 16.6746 6.6243 16.713 6.55132C16.7514 6.47833 16.8153 6.42201 16.8925 6.39307Z" fill="#8E4981"/>
<path d="M23.0654 12.0483L23.2864 11.6069C23.3021 11.6945 23.2891 11.7848 23.2492 11.8643C23.2094 11.9439 23.1449 12.0084 23.0654 12.0483Z" fill="#924E85"/>
<path d="M15.9945 9.82985L15.9718 9.83012L15.9492 9.82987C15.9546 9.62809 15.96 9.42632 15.9664 9.22459C15.9665 9.22225 15.9813 9.21783 15.9885 9.21892C15.997 9.22155 16.005 9.2255 16.0123 9.2306C16.0063 9.43035 16.0004 9.6301 15.9945 9.82985Z" fill="#833775"/>
<path d="M14.3916 14.3223C14.4097 14.3223 14.4277 14.3227 14.4458 14.3233C14.4126 14.5433 14.5233 14.7777 14.3789 14.9865C14.3831 14.7651 14.3873 14.5437 14.3916 14.3223Z" fill="#853976"/>
<path d="M27.7202 4.27233L27.335 4.45148C27.3467 4.41319 27.3664 4.3778 27.3927 4.3476C27.419 4.3174 27.4514 4.29306 27.4877 4.27617C27.524 4.25928 27.5635 4.25021 27.6035 4.24955C27.6436 4.24889 27.6833 4.25665 27.7202 4.27233Z" fill="#8E4881"/>
<path d="M16.0696 3.06243C15.9634 2.95439 15.8572 2.84634 15.751 2.73828C15.9317 2.77324 16.0724 2.84757 16.0696 3.06243Z" fill="#8F4981"/>
<path d="M24.7721 8.66943L24.7186 9.16359C24.6736 9.08632 24.6544 8.99664 24.664 8.90771C24.6737 8.81877 24.7115 8.73527 24.7721 8.66943Z" fill="#904B83"/>
<path d="M14.4466 13.1015C14.4283 13.1022 14.41 13.1025 14.3916 13.1027C14.3948 12.9006 14.3979 12.6986 14.4011 12.4966C14.5039 12.6917 14.4223 12.9006 14.4466 13.1015Z" fill="#853976"/>
<path d="M9.99539 4.84458L9.56152 4.88107C9.70293 4.6991 9.88624 4.80133 10.0555 4.80847C10.0523 4.81489 10.0507 4.82475 10.0456 4.82709C10.0292 4.83381 10.0124 4.83965 9.99539 4.84458Z" fill="#914C84"/>
<path d="M1.9569 4.00977C1.95708 4.19379 1.95727 4.37783 1.95747 4.56187C1.90805 4.47829 1.88194 4.383 1.88184 4.2859C1.88174 4.1888 1.90765 4.09345 1.9569 4.00977Z" fill="#965489"/>
<path d="M13.173 15.9292L13.6154 15.9309C13.4792 16.0458 13.3229 15.9661 13.1759 15.9751C13.1719 15.9754 13.1638 15.9619 13.1636 15.9547C13.1651 15.9457 13.1682 15.937 13.173 15.9292Z" fill="#843775"/>
<path d="M22.167 13.3196L22.402 13.0503C22.425 13.2282 22.3215 13.296 22.167 13.3196Z" fill="#8F4A82"/>
<path d="M3.21794 11.2197C3.24043 11.3456 3.26291 11.4715 3.2854 11.5973L3.24998 11.659C3.24385 11.5122 3.10835 11.3749 3.21794 11.2197Z" fill="#8E4780"/>
<path d="M4.39914 4.84039C4.41592 4.84032 4.43271 4.84013 4.44949 4.83984C4.48985 4.89569 4.51224 4.9625 4.51367 5.03139C4.5151 5.10027 4.49551 5.16796 4.4575 5.22543C4.46254 5.09339 4.37035 4.97603 4.39914 4.84039Z" fill="#945288"/>
<path d="M23.938 9.26566L23.9556 8.78125C24.0167 8.93817 24.0269 9.11032 23.9848 9.27336C23.9845 9.27598 23.9691 9.27978 23.9616 9.27843C23.9531 9.27546 23.9451 9.27115 23.938 9.26566Z" fill="#843775"/>
<path d="M14.5567 2.61666L14.2842 2.79031C14.305 2.62291 14.3954 2.56441 14.5567 2.61666Z" fill="#914C83"/>
<path d="M3.05661 3.11378L2.67285 3.17826C2.69345 3.14837 2.71983 3.12292 2.75045 3.10343C2.78106 3.08394 2.81529 3.07079 2.85108 3.06478C2.88688 3.05877 2.92351 3.06 2.95882 3.06842C2.99412 3.07684 3.02738 3.09227 3.05661 3.11378Z" fill="#8E4881"/>
<path d="M32.6055 9.37334C32.6112 9.24971 32.6169 9.12607 32.6226 9.00244C32.7145 9.13757 32.6557 9.28702 32.6625 9.43019C32.6626 9.43248 32.6445 9.43877 32.6437 9.43748C32.6301 9.41665 32.6179 9.39489 32.6055 9.37334Z" fill="#904A82"/>
<path d="M4.62145 6.22496L4.56836 5.89116C4.57262 5.8793 4.57928 5.86845 4.58793 5.85928C4.59658 5.85011 4.60702 5.84283 4.61862 5.83789C4.65851 5.89442 4.68017 5.96179 4.68068 6.03098C4.68118 6.10017 4.66052 6.16786 4.62145 6.22496Z" fill="#98588B"/>
<path d="M23.9556 8.10854C23.9507 7.96462 23.9458 7.82069 23.9409 7.67676C23.9851 7.7395 24.01 7.81377 24.0126 7.89046C24.0152 7.96715 23.9954 8.04294 23.9556 8.10854Z" fill="#863A77"/>
<path d="M14.4429 12.1517L14.4568 11.7759C14.5517 11.9075 14.4849 12.056 14.4999 12.196C14.5003 12.1998 14.4896 12.2049 14.484 12.2094L14.4429 12.1517Z" fill="#853976"/>
<path d="M13.2534 4.95459L13.1606 5.33592C13.1227 5.27296 13.1111 5.19758 13.1285 5.12616C13.1459 5.05474 13.1908 4.99308 13.2534 4.95459Z" fill="#914D84"/>
<path d="M11.8975 14.9043L12.1159 15.1503C11.9472 15.1531 11.9059 15.0433 11.8975 14.9043Z" fill="#8F4A82"/>
<path d="M2.17259 3.56885C2.11813 3.6687 2.06365 3.76858 2.00917 3.86849C2.00813 3.7385 1.99105 3.59971 2.17259 3.56885Z" fill="#8E4781"/>
<path d="M20.7808 4.05743C20.7815 4.04106 20.7821 4.02469 20.7826 4.00831C20.8938 4.04053 21.05 3.92769 21.1142 4.11097L20.7808 4.05743Z" fill="#98588C"/>
<path d="M15.458 5.9478L15.5664 5.61914C15.5853 5.64679 15.5975 5.6784 15.6022 5.71154C15.6068 5.74468 15.6038 5.77844 15.5933 5.81022C15.5828 5.842 15.5652 5.87094 15.5417 5.8948C15.5183 5.91866 15.4896 5.93679 15.458 5.9478Z" fill="#8C457E"/>
<path d="M21.751 13.7075L21.9975 13.4883C22.0034 13.66 21.89 13.6982 21.751 13.7075Z" fill="#8F4982"/>
<path d="M25.0189 7.61572L24.9335 7.99647C24.842 7.84273 24.9237 7.72772 25.0189 7.61572Z" fill="#8C447E"/>
<path d="M15.3296 6.49321L15.3992 6.17334C15.5042 6.29343 15.3704 6.396 15.3735 6.50872C15.3657 6.51062 15.3577 6.51091 15.3499 6.50955C15.3422 6.50528 15.3354 6.49975 15.3296 6.49321Z" fill="#904A82"/>
<path d="M16.0054 10.8794C16.1022 10.9731 16.0589 11.1059 16.0993 11.2153C15.9197 11.1446 16.0343 10.992 16.0054 10.8794Z" fill="#8C457F"/>
<path d="M26.338 5.28711L26.1602 5.50256C26.1178 5.34711 26.199 5.29337 26.338 5.28711Z" fill="#904B83"/>
<path d="M14.0593 3.06738C14.0177 3.15253 13.9994 3.25411 13.897 3.29623C13.9187 3.19708 13.9002 3.06953 14.0593 3.06738Z" fill="#8E4881"/>
<path d="M7.89071 7.17041C7.90741 7.28447 7.82357 7.35707 7.77705 7.44505C7.69461 7.30388 7.80205 7.24102 7.89071 7.17041Z" fill="#8E4981"/>
<path d="M1.95428 4.55615C2.05881 4.65397 2.0161 4.77459 2.00622 4.89013C2.02126 4.90483 2.02569 4.91886 2.01952 4.9322C2.01351 4.94521 2.00776 4.95171 2.00228 4.95172C1.90133 4.83013 1.96538 4.6886 1.95428 4.55615Z" fill="#97578B"/>
<path d="M18.7776 4.38791L18.5586 4.50802C18.5764 4.36762 18.6513 4.33119 18.7776 4.38791Z" fill="#8F4A82"/>
<path d="M5.78782 11.1631L5.71204 11.3984C5.64554 11.3522 5.64259 11.2813 5.62354 11.2188L5.78782 11.1631Z" fill="#8B437D"/>
<path d="M14.4941 11.5396L14.5114 11.2212C14.5945 11.324 14.5585 11.438 14.541 11.5499C14.5405 11.5526 14.5246 11.5554 14.517 11.5537C14.5086 11.5503 14.5009 11.5455 14.4941 11.5396Z" fill="#843976"/>
<path d="M7.33569 8.22363C7.35406 8.33825 7.26876 8.4104 7.22266 8.49862C7.13868 8.35713 7.24677 8.29431 7.33569 8.22363Z" fill="#8E4780"/>
<path d="M31.5566 12.3795L31.6796 12.1631C31.7326 12.2884 31.7008 12.3658 31.5566 12.3795Z" fill="#8F4A82"/>
<path d="M16.067 8.66797C16.062 8.79618 16.0571 8.92439 16.0521 9.05261C16.0111 8.99614 15.9902 8.92749 15.9929 8.85771C15.9956 8.78794 16.0217 8.72111 16.067 8.66797Z" fill="#955388"/>
<path d="M17.7261 13.9268C17.7838 13.9297 17.8399 13.947 17.8893 13.977C17.9387 14.0069 17.9799 14.0487 18.0092 14.0985C17.9508 14.0989 17.8933 14.083 17.8433 14.0527C17.7933 14.0224 17.7527 13.9788 17.7261 13.9268Z" fill="#8E4781"/>
<path d="M29.7812 14.1066C29.8719 14.0578 29.9625 14.0089 30.0531 13.96C30.0068 14.0906 29.9286 14.1625 29.7812 14.1066Z" fill="#904A83"/>
<path d="M6.72368 9.38818C6.74072 9.50236 6.65595 9.57457 6.61004 9.66279C6.52763 9.52166 6.63507 9.45881 6.72368 9.38818Z" fill="#8E4881"/>
<path d="M6.27979 15.2053L6.44682 14.9819C6.46494 14.9951 6.47153 15.009 6.46659 15.0235C6.46154 15.0384 6.45618 15.0458 6.4505 15.0458C6.42643 15.134 6.41781 15.2387 6.27979 15.2053Z" fill="#8F4982"/>
<path d="M12.4013 8.95891L12.3832 9.21759C12.3504 9.1761 12.3297 9.12628 12.3237 9.07372C12.3176 9.02117 12.3263 8.96796 12.3487 8.92006C12.3785 8.84077 12.3803 8.94526 12.4013 8.95891Z" fill="#924E85"/>
<path d="M26.9419 4.71648L26.7828 4.84184C26.7641 4.70935 26.8209 4.67229 26.9419 4.71648Z" fill="#8E4981"/>
<path d="M13.4161 4.51123L13.3291 4.78201C13.2362 4.65273 13.312 4.57745 13.4161 4.51123Z" fill="#8C457E"/>
<path d="M18.3334 4.66301L18.1721 4.78584C18.1583 4.65645 18.2106 4.61363 18.3334 4.66301Z" fill="#8E4981"/>
<path d="M22.6094 4.84288L22.4521 4.71617C22.5726 4.67425 22.6321 4.70772 22.6094 4.84288Z" fill="#8E4881"/>
<path d="M12.2912 9.78662L12.2754 10.0499C12.2255 9.95883 12.1604 9.86685 12.2912 9.78662Z" fill="#863B78"/>
<path d="M14.5547 10.9902L14.5676 10.7222C14.6227 10.8144 14.6642 10.9059 14.5547 10.9902Z" fill="#843775"/>
<path d="M9.2888 4.95312C9.26138 5.03766 9.18764 5.07563 9.12036 5.12011C9.08919 4.97669 9.19373 4.96965 9.2888 4.95312Z" fill="#8F4981"/>
<path d="M23.0163 5.27938L22.8892 5.1225C23.0247 5.09959 23.0578 5.15936 23.0163 5.27938Z" fill="#8E4881"/>
<path d="M9.00595 5.23347L8.88168 5.39117C8.83429 5.26888 8.87013 5.21193 9.00595 5.23347Z" fill="#8E4881"/>
<path d="M16.416 7.4502L16.3301 7.7213C16.2353 7.59195 16.3122 7.51682 16.416 7.4502Z" fill="#8C457E"/>
<path d="M30.9995 13.1525L31.126 12.9956C31.169 13.1163 31.1355 13.1755 30.9995 13.1525Z" fill="#8E4881"/>
<path d="M16.897 13.1279L17.0604 13.3211C16.8953 13.35 16.907 13.2298 16.897 13.1279Z" fill="#8F4981"/>
<path d="M30.3608 13.7628L30.5541 13.5996C30.5839 13.7651 30.4626 13.7525 30.3608 13.7628Z" fill="#8F4981"/>
<path d="M17.3973 13.6543C17.4649 13.6985 17.5374 13.7377 17.5658 13.8213C17.4709 13.8046 17.3658 13.7981 17.3973 13.6543Z" fill="#8E4881"/>
<path d="M14.6079 10.5429L14.6239 10.2783C14.673 10.3698 14.7312 10.4618 14.6079 10.5429Z" fill="#873D79"/>
<path d="M11.6748 14.625L11.8371 14.8203C11.6767 14.8432 11.6827 14.7283 11.6748 14.625Z" fill="#8F4981"/>
<path d="M6.44998 15.0455L6.44629 14.9816L6.56515 14.8232C6.651 14.9615 6.51247 14.9839 6.44998 15.0455Z" fill="#8F4982"/>
<path d="M12.5601 15.5977L12.723 15.7184C12.5988 15.7721 12.5491 15.7257 12.5601 15.5977Z" fill="#904B83"/>
<path d="M5.06787 15.9248L5.33694 15.9263C5.3541 15.939 5.35991 15.9518 5.35436 15.9647C5.34881 15.9777 5.3432 15.9841 5.33752 15.9842C5.24927 15.957 5.13432 16.0507 5.06787 15.9248Z" fill="#893F7B"/>
<path d="M13.9012 3.28955C13.9057 3.36851 13.8806 3.44628 13.8308 3.50776C13.7472 3.40058 13.8312 3.34732 13.9012 3.28955Z" fill="#8F4982"/>
<path d="M29.4478 4.05374C29.4476 4.03892 29.4472 4.0241 29.4468 4.0093C29.5146 4.04363 29.6235 3.92949 29.6622 4.06883L29.4478 4.05374Z" fill="#873B78"/>
<path d="M12.3485 9.3335L12.3291 9.60584C12.3104 9.58773 12.2959 9.56575 12.2866 9.54145C12.2774 9.51714 12.2735 9.49111 12.2754 9.46516C12.2772 9.43921 12.2847 9.41397 12.2973 9.39122C12.31 9.36848 12.3274 9.34878 12.3485 9.3335Z" fill="#843875"/>
<path d="M2.00202 4.95172L2.00596 4.89014C2.09909 4.94258 2.05019 5.03478 2.06731 5.1085C1.94777 5.09681 2.03125 5.00088 2.00202 4.95172Z" fill="#853976"/>
<path d="M12.5099 8.23047L12.4947 8.44068C12.4354 8.36597 12.4071 8.29349 12.5099 8.23047Z" fill="#883F7A"/>
<path d="M2.10526 5.23291L2.12157 5.44244C2.021 5.37998 2.04542 5.30782 2.10526 5.23291Z" fill="#843876"/>
<path d="M14.6655 10.1024L14.678 9.89014C14.74 9.96477 14.7678 10.0374 14.6655 10.1024Z" fill="#833775"/>
<path d="M23.9005 7.49774L23.8853 7.2876C23.9845 7.35085 23.962 7.42289 23.9005 7.49774Z" fill="#843976"/>
<path d="M2.50248 7.89021L2.50561 7.8291C2.59667 7.88203 2.55028 7.97341 2.56684 8.04718C2.4479 8.03469 2.52976 7.94016 2.50248 7.89021Z" fill="#863C78"/>
<path d="M4.73866 6.88696L4.72021 6.67871C4.82508 6.73941 4.79369 6.81214 4.73866 6.88696Z" fill="#873D7A"/>
<path d="M10.776 5.53223C10.7304 5.45053 10.6848 5.36883 10.6392 5.28711C10.7824 5.31447 10.7849 5.42016 10.776 5.53223Z" fill="#8D4780"/>
<path d="M4.68088 6.55491C4.67478 6.48582 4.66869 6.41674 4.6626 6.34766C4.76989 6.40785 4.73841 6.48024 4.68088 6.55491Z" fill="#863A77"/>
<path d="M2.21484 5.89941L2.2314 6.11039C2.13483 6.04719 2.15789 5.97463 2.21484 5.89941Z" fill="#873C79"/>
<path d="M14.9951 8.04599L15.0167 7.84033C15.0673 7.91493 15.1054 7.98822 14.9951 8.04599Z" fill="#873D79"/>
<path d="M2.3871 7.16837L2.36266 7.16843L2.33823 7.16783C2.35007 7.07728 2.30328 6.97739 2.38154 6.89746L2.3871 7.16837Z" fill="#873D79"/>
<path d="M32.5508 9.76704L32.5654 9.55713C32.6265 9.63169 32.6541 9.70391 32.5508 9.76704Z" fill="#863B78"/>
<path d="M4.51389 5.55672L4.49805 5.34668C4.59671 5.40968 4.57442 5.48176 4.51389 5.55672Z" fill="#843876"/>
<path d="M5.3375 15.9841L5.33691 15.9263C5.35787 15.9053 5.38336 15.8895 5.41142 15.8799C5.43948 15.8704 5.46936 15.8674 5.49874 15.8713C5.49406 15.9787 5.37773 15.9273 5.3375 15.9841Z" fill="#8B447E"/>
<path d="M24.7161 10.7773L24.7263 10.9928C24.6093 10.9264 24.6686 10.8516 24.7161 10.7773Z" fill="#843976"/>
<path d="M4.61819 5.83799L4.56793 5.89127C4.56271 5.82139 4.55748 5.75152 4.55225 5.68164C4.67488 5.69146 4.58647 5.78997 4.61819 5.83799Z" fill="#873C79"/>
<path d="M51.4564 7.14832C51.2597 6.24161 50.7305 5.44147 49.9731 4.90558C49.2434 4.41879 48.3755 4.18166 47.4996 4.22973C45.5216 4.18349 44.1695 5.3106 43.6879 7.06732C43.3226 8.42551 43.3302 9.85707 43.71 11.2113C43.8958 12.0227 44.3386 12.7525 44.9725 13.292C45.8667 14.0202 46.9134 14.1913 48.0306 14.1087C49.6391 13.9897 50.7218 13.1615 51.2809 11.6728C51.8373 10.1911 51.8382 8.67228 51.4564 7.14832ZM48.7764 10.9726C48.5501 11.7523 47.8954 12.1445 47.1514 11.9371C46.9481 11.8773 46.7649 11.7633 46.6214 11.6073C46.4779 11.4513 46.3795 11.2592 46.3369 11.0516C46.1286 10.3167 46.1474 9.55983 46.1532 8.80551C46.141 8.27258 46.2237 7.74174 46.3973 7.23774C46.6785 6.49029 47.333 6.17113 47.9973 6.45333C48.1686 6.53268 48.3215 6.6469 48.4461 6.78868C48.5708 6.93046 48.6645 7.09669 48.7213 7.27675C48.9494 7.86932 48.9709 8.4941 49.0045 9.1196C48.9595 9.73988 48.9523 10.3667 48.7764 10.9726Z" fill="#19191A"/>
<path d="M88.5185 13.7203C87.9133 12.4538 87.3134 11.1848 86.6974 9.92351C86.5985 9.72109 86.588 9.64304 86.8154 9.5187C87.1266 9.34512 87.3975 9.10778 87.6106 8.82224C87.8237 8.53669 87.974 8.20936 88.0518 7.86168C88.1296 7.51401 88.1331 7.15381 88.0621 6.80469C87.9911 6.45556 87.8471 6.12538 87.6396 5.83574C86.9621 4.9098 85.9572 4.59902 84.8784 4.51554C83.7531 4.42847 82.6219 4.49185 81.4935 4.47415C81.3057 4.47121 81.2682 4.52522 81.2686 4.70298C81.2742 7.69538 81.2737 10.6878 81.2671 13.6802C81.2666 13.8796 81.3405 13.8955 81.502 13.8938C82.1866 13.8868 82.8715 13.8822 83.5559 13.8959C83.7671 13.9001 83.8325 13.854 83.8303 13.6299C83.818 12.374 83.8244 11.1178 83.8244 9.86174V9.55678C84.1861 10.3062 84.5101 10.9769 84.8335 11.6478C85.1616 12.3283 85.4894 13.0089 85.8172 13.6895C85.8621 13.7823 85.8743 13.8953 86.0309 13.8941C86.879 13.8874 87.7272 13.8909 88.5986 13.8909C88.5641 13.8175 88.5416 13.7687 88.5185 13.7203ZM84.8877 8.35357C84.6342 8.45722 84.3624 8.50862 84.0886 8.50467C83.8014 8.6277 83.7852 8.45467 83.7905 8.21171C83.8029 7.65032 83.8064 7.08807 83.7887 6.52696C83.7815 6.29784 83.8607 6.26953 84.0579 6.3035C84.3582 6.32943 84.6535 6.39672 84.9355 6.50347C85.3743 6.71105 85.4837 7.10014 85.4897 7.52704C85.4943 7.71185 85.4378 7.89303 85.329 8.04247C85.2201 8.19191 85.065 8.30126 84.8877 8.35357Z" fill="#19191A"/>
<path d="M23.956 8.78124C23.956 8.55697 23.9559 8.33269 23.9559 8.10842C23.993 7.96612 23.9879 7.81609 23.9412 7.67665C23.9214 7.65182 23.9076 7.62281 23.9008 7.59184C23.8939 7.56087 23.8942 7.52874 23.9016 7.4979C23.9178 7.46462 23.9249 7.42767 23.9222 7.39078C23.9195 7.35389 23.9072 7.31836 23.8864 7.28775C23.7373 6.56582 23.4414 5.88227 23.0169 5.2796C23.0187 5.19159 22.9588 5.15348 22.8898 5.12272C22.7964 5.02947 22.703 4.93623 22.6096 4.84299C22.5787 4.77415 22.5406 4.71409 22.4523 4.71629C22.0493 4.43043 21.595 4.22489 21.1143 4.11092C21.0128 4.01737 20.8813 4.0482 20.7626 4.02634C20.5374 3.96661 20.301 3.96336 20.0743 4.01685C19.626 4.07358 19.1891 4.19867 18.7787 4.38778C18.7348 4.38646 18.6913 4.39689 18.6528 4.41801C18.6143 4.43913 18.5821 4.47016 18.5597 4.50789C18.4843 4.55957 18.4089 4.61126 18.3335 4.66295C18.2433 4.65633 18.2077 4.72103 18.1721 4.78579C17.6604 5.2478 17.2282 5.79086 16.8929 6.39322C16.7822 6.49894 16.7091 6.63794 16.6846 6.78905C16.5951 7.00943 16.5056 7.22982 16.4162 7.45022C16.3565 7.5308 16.2942 7.61053 16.3302 7.72132C16.2201 8.03063 16.2122 8.36827 16.0673 8.66794C16.0195 8.79089 16.0143 8.9263 16.0524 9.05257C16.0594 9.08336 16.0595 9.11532 16.0526 9.14614C16.0457 9.17695 16.032 9.20584 16.0125 9.2307C15.9363 9.43148 15.9959 9.64008 15.9771 9.84411C15.9985 10.1906 15.9335 10.5398 16.0107 10.8845L16.0069 10.8792C16.0582 10.9856 16.0087 11.1201 16.1008 11.2151C16.1217 11.309 16.1425 11.403 16.1634 11.4969C16.1632 11.6885 16.2109 11.8771 16.302 12.0456C16.5044 12.4043 16.6594 12.7889 16.8977 13.1279C16.9071 13.171 16.9269 13.2111 16.9554 13.2448C16.9839 13.2785 17.0201 13.3047 17.0611 13.3211C17.1734 13.4322 17.2857 13.5433 17.3981 13.6544C17.4303 13.7299 17.4908 13.7898 17.5666 13.8214L17.7275 13.927C17.818 13.9905 17.9126 14.0479 18.0107 14.0988C18.4322 14.2303 18.8604 14.3397 19.2935 14.4263C19.5223 14.4811 19.7609 14.4805 19.9896 14.4247C20.1599 14.4044 20.3283 14.3697 20.4928 14.3211C20.9462 14.1947 21.3729 13.9868 21.7517 13.7074C21.8061 13.6907 21.8563 13.6624 21.8989 13.6246C21.9414 13.5868 21.9753 13.5403 21.9983 13.4882L22.1679 13.3199C22.271 13.2516 22.3826 13.1909 22.4029 13.0506C22.6438 12.7302 22.8649 12.3955 23.0651 12.0482C23.1799 11.9256 23.2567 11.7723 23.2861 11.6069C23.4872 11.1556 23.6466 10.6869 23.7624 10.2066C23.8318 9.89536 23.8805 9.57946 23.9384 9.26564C23.9885 9.10883 23.9945 8.94128 23.956 8.78124ZM21.6065 9.16211C21.595 9.37374 21.5491 9.58209 21.4707 9.77899C21.3996 9.89249 21.3676 10.0262 21.3798 10.1596C21.2705 10.4566 21.186 10.7665 20.9461 10.9961C20.8872 11.0681 20.8336 11.1443 20.7856 11.224C20.7868 11.2224 20.7883 11.2211 20.7894 11.2195L20.7854 11.2243L20.7856 11.224C20.6869 11.3623 20.5309 11.4514 20.4537 11.6083C20.1147 11.9116 19.7511 12.1474 19.2661 11.9939C18.9498 11.8937 18.8059 11.6192 18.6627 11.3541C18.5393 11.1182 18.4512 10.8654 18.4011 10.6039C18.4645 10.4689 18.3526 10.35 18.3658 10.2194C18.3543 9.90654 18.3896 9.59294 18.347 9.28087C18.3908 8.78871 18.5356 8.31088 18.7726 7.87732C18.8012 7.86552 18.8243 7.8434 18.8373 7.81535C18.8504 7.7873 18.8524 7.75538 18.843 7.72592C19.0729 7.24552 19.4147 6.82724 19.8396 6.50616C20.0391 6.37241 20.2833 6.32279 20.5192 6.36808C20.7551 6.41337 20.9636 6.54992 21.0993 6.74805C21.3699 7.13914 21.5439 7.5888 21.607 8.06015C21.5743 8.42673 21.5742 8.79549 21.6065 9.16211Z" fill="#FEFEFE"/>
<path d="M21.6055 9.162C21.5285 8.7987 21.5286 8.42329 21.606 8.06006C21.6409 8.42655 21.6408 8.79554 21.6055 9.162Z" fill="#873D79"/>
<path d="M18.3464 9.28076C18.4504 9.60792 18.3635 9.94378 18.3919 10.2744C18.3758 10.3013 18.3601 10.2998 18.3447 10.2739C18.3181 9.94333 18.3187 9.61119 18.3464 9.28076Z" fill="#863A77"/>
<path d="M20.4526 11.608C20.4797 11.4055 20.6535 11.3291 20.7883 11.2192C20.737 11.4009 20.5834 11.4946 20.4526 11.608Z" fill="#904B83"/>
<path d="M21.3796 10.1594C21.2899 10.0041 21.3633 9.88744 21.4704 9.77881C21.4402 9.90567 21.4099 10.0325 21.3796 10.1594Z" fill="#914D84"/>
<path d="M18.3442 10.2739C18.36 10.2744 18.3757 10.2746 18.3914 10.2745C18.4396 10.3831 18.495 10.4915 18.4001 10.6039L18.3442 10.2739Z" fill="#8D4780"/>
<path d="M20.7844 11.2243C20.7794 11.1071 20.8557 11.047 20.9451 10.9961C20.9527 11.1151 20.8737 11.1733 20.7844 11.2243Z" fill="#8F4982"/>
<path d="M18.8418 7.72607C18.9023 7.81541 18.9 7.87565 18.7715 7.87748L18.8418 7.72607Z" fill="#8D4680"/>
<path d="M29.3859 6.4069C29.8243 6.58264 29.9573 6.99235 30.1146 7.37551C30.1789 7.56361 30.2305 7.7558 30.2692 7.95079C30.2578 8.02233 30.2162 8.09578 30.2827 8.16237C30.3611 8.41885 30.3613 8.6929 30.2832 8.9495C30.2607 8.99034 30.2481 9.03588 30.2463 9.08247C30.2445 9.12907 30.2536 9.17544 30.2729 9.21789C30.2813 9.24891 30.2819 9.2815 30.2748 9.31282C30.2677 9.34415 30.2531 9.37326 30.2321 9.39764C30.1564 9.45967 30.2051 9.53407 30.2115 9.60426C30.1028 10.1901 29.8604 10.7429 29.5034 11.2199C29.3295 11.3381 29.1804 11.4891 29.0645 11.6646C28.7451 11.8905 28.4419 12.1683 27.9984 11.9954C27.8881 11.9102 27.7689 11.8372 27.643 11.7775C27.5593 11.7206 27.4945 11.6402 27.4567 11.5463C27.4553 11.4962 27.4428 11.4469 27.4202 11.4021C27.3975 11.3574 27.3652 11.3182 27.3256 11.2874C27.2097 11.0973 27.1375 10.8839 27.1141 10.6626C27.1046 10.4786 27.0768 10.296 27.0313 10.1175C27.0305 9.92124 27.0308 9.7251 27.031 9.52901C27.0371 9.3529 27.122 9.18184 27.0653 9.00161C27.1966 8.26398 27.519 7.57365 28.0002 6.99943C28.0819 6.95708 28.1536 6.89765 28.2103 6.82516C28.2682 6.75353 28.3573 6.70779 28.3869 6.61281C28.4597 6.53051 28.5561 6.47262 28.663 6.44699C28.7269 6.4035 28.7999 6.43044 28.8682 6.42025C28.9048 6.41479 28.9232 6.40007 28.8873 6.40926C28.8837 6.40168 28.8805 6.39384 28.878 6.38581C28.94 6.3501 29.0105 6.3317 29.0821 6.33255C29.1537 6.33339 29.2238 6.35345 29.285 6.39062C29.2781 6.41737 29.231 6.3979 29.2335 6.43529C29.2801 6.40318 29.3388 6.43597 29.3859 6.4069Z" fill="#6F7073"/>
<path d="M29.064 11.6644C29.1011 11.5632 29.1595 11.4712 29.2352 11.3945C29.3109 11.3178 29.4022 11.2582 29.5028 11.2197C29.384 11.3928 29.2354 11.5433 29.064 11.6644Z" fill="#8E4881"/>
<path d="M27.0579 10.1637C27.1407 10.3164 27.161 10.4952 27.1145 10.6626C27.0399 10.5065 27.0043 10.3346 27.0111 10.1617C27.0277 10.1375 27.0434 10.1369 27.0579 10.1637Z" fill="#9A5B8D"/>
<path d="M27.0661 9.00146C27.1036 9.07916 27.1224 9.16453 27.1211 9.25077C27.1198 9.33702 27.0983 9.42177 27.0585 9.49828C27.0434 9.52251 27.0275 9.52299 27.011 9.49972C26.9682 9.32689 27.0531 9.16815 27.0661 9.00146Z" fill="#945288"/>
<path d="M27.0103 9.49954C27.0261 9.49836 27.0419 9.49788 27.0578 9.4981C27.0577 9.71985 27.0576 9.9416 27.0576 10.1634C27.0419 10.1633 27.0263 10.1627 27.0107 10.1614L27.0103 9.49954Z" fill="#813372"/>
<path d="M27.6426 11.7773C27.8091 11.7778 27.9118 11.9227 28.0613 11.9617C28.0573 11.9686 28.0547 11.9792 28.0489 11.9815C28.0322 11.9872 28.0152 11.9918 27.9979 11.9953C27.9271 11.9848 27.8591 11.96 27.798 11.9226C27.737 11.8851 27.6841 11.8357 27.6426 11.7773Z" fill="#8E4881"/>
<path d="M27.3252 11.2871C27.3531 11.2918 27.3794 11.3029 27.4022 11.3196C27.425 11.3364 27.4435 11.3582 27.4563 11.3834C27.469 11.4086 27.4757 11.4365 27.4757 11.4648C27.4757 11.493 27.469 11.5209 27.4563 11.5461C27.3921 11.4718 27.3471 11.3828 27.3252 11.2871Z" fill="#8D4780"/>
<path d="M28.3869 6.61279C28.4282 6.75643 28.2885 6.76928 28.2244 6.83675C28.2204 6.84259 28.215 6.84729 28.2087 6.85037C28.2023 6.85346 28.1952 6.85482 28.1882 6.85433C28.1812 6.85384 28.1744 6.8515 28.1685 6.84757C28.1626 6.84363 28.1579 6.83823 28.1548 6.8319C28.2139 6.74166 28.2934 6.6666 28.3869 6.61279Z" fill="#8D4780"/>
<path d="M28.1555 6.83154L28.2252 6.8364C28.1579 6.90089 28.1444 7.03918 28.001 6.99906L28.1555 6.83154Z" fill="#8E4881"/>
<path d="M30.2734 9.21773C30.1892 9.11669 30.2251 9.00393 30.2417 8.89307C30.2492 8.89505 30.2608 8.89478 30.2634 8.89945C30.2712 8.91563 30.278 8.93229 30.2838 8.94932L30.2734 9.21773Z" fill="#823573"/>
<path d="M28.8786 6.38574C28.8924 6.40473 28.9987 6.40044 28.9067 6.44184C28.8267 6.45915 28.7442 6.46087 28.6636 6.44692C28.716 6.35908 28.8062 6.40368 28.8786 6.38574Z" fill="#8D4680"/>
<path d="M30.2829 8.16226C30.2661 8.17837 30.2538 8.25272 30.2367 8.20367C30.2169 8.1629 30.2095 8.11725 30.2153 8.0723C30.2211 8.02736 30.2399 7.98509 30.2694 7.95068L30.2829 8.16226Z" fill="#863A77"/>
<path d="M30.2114 9.60409C30.1588 9.52931 30.1221 9.45611 30.232 9.39746C30.2251 9.46634 30.2183 9.53521 30.2114 9.60409Z" fill="#8A417C"/>
<path d="M29.3868 6.40641C29.3166 6.46746 29.2409 6.4579 29.123 6.4127L29.2858 6.39014L29.3868 6.40641Z" fill="#8D4680"/>
</svg>
