<svg width="79" height="23" viewBox="0 0 79 23" fill="none" xmlns="http://www.w3.org/2000/svg">
<path d="M0.0803538 11.72C0.0803538 10.0445 0.0803538 8.36904 0.0803538 6.69354C0.0851443 6.61537 0.0845838 6.53697 0.0786796 6.45889C0.0634843 6.35941 0.0829123 6.25773 0.133725 6.17086C0.184537 6.084 0.263644 6.01722 0.357805 5.98171C3.39565 4.23495 6.43115 2.48409 9.4643 0.72916C9.49245 0.715526 9.51983 0.700346 9.54631 0.683689C9.61162 0.628072 9.69418 0.596825 9.77995 0.595275C9.86571 0.593725 9.94935 0.621968 10.0166 0.675189C10.3597 0.89296 10.7183 1.08631 11.0706 1.2897C13.7259 2.8229 16.3809 4.35658 19.0357 5.89075C19.5303 6.17712 19.4577 6.04329 19.4581 6.60824C19.4607 10.0219 19.4612 13.4355 19.4594 16.8491C19.4594 16.9431 19.453 17.0375 19.4604 17.1309C19.4687 17.1929 19.4571 17.2561 19.4273 17.3112C19.3976 17.3663 19.3511 17.4106 19.2947 17.4377C18.4938 17.8965 17.6948 18.3586 16.8937 18.8171C16.7793 18.8826 16.7135 18.8452 16.7087 18.7184C16.7033 18.5777 16.7044 18.4366 16.7044 18.2957C16.7043 14.9447 16.7039 11.5937 16.7035 8.24276C16.7033 7.67885 16.7634 7.78581 16.2925 7.51307C14.2756 6.34473 12.2568 5.17942 10.2364 4.01712C10.1657 3.98367 10.0977 3.94472 10.0331 3.90064C9.95605 3.83564 9.85841 3.8001 9.75759 3.80035C9.65677 3.80059 9.5593 3.83661 9.48255 3.90198C7.37315 5.12915 5.25905 6.34818 3.14024 7.55908C3.03062 7.61281 2.94053 7.69946 2.88257 7.8069C2.82461 7.91434 2.80167 8.03721 2.81697 8.15833C2.82885 10.6324 2.82859 13.1065 2.83204 15.5806C2.83337 16.5358 2.83486 17.491 2.83647 18.4462C2.83658 18.5244 2.83819 18.6028 2.83479 18.681C2.82723 18.8548 2.77958 18.8865 2.63748 18.8147C2.59563 18.7936 2.55473 18.7705 2.51414 18.747C1.79666 18.3314 1.08536 17.9046 0.358397 17.5064C0.26157 17.4603 0.181939 17.3846 0.131091 17.2902C0.0802427 17.1958 0.0608236 17.0876 0.0756374 16.9814C0.0844821 15.2276 0.0803572 13.4738 0.0803538 11.72Z" fill="#88898C"/>
<path d="M8.37232 7.80518C8.37232 8.02614 8.37232 8.19747 8.37232 8.3688C8.37232 11.7362 8.37279 15.1035 8.37373 18.4709C8.37414 18.9854 8.29595 18.8942 8.76323 19.1603C9.04877 19.3229 9.33558 19.4835 9.61855 19.6504C9.66333 19.6816 9.71647 19.6985 9.77103 19.699C9.82558 19.6994 9.87901 19.6834 9.9243 19.653C10.2878 19.4376 10.6547 19.2281 11.0204 19.0164C11.0687 18.9908 11.1082 18.9512 11.1337 18.9028C11.1593 18.8544 11.1697 18.7995 11.1635 18.7451C11.1576 18.6201 11.1627 18.4946 11.1627 18.3693C11.1627 15.0333 11.1627 11.6972 11.1627 8.36122V7.86203C11.1997 7.84028 11.2428 7.83104 11.2855 7.83568C11.3282 7.84032 11.3683 7.85861 11.3998 7.88782C12.1728 8.33263 12.9428 8.78274 13.718 9.22368C13.7827 9.25044 13.837 9.29724 13.8732 9.3572C13.9093 9.41715 13.9252 9.4871 13.9186 9.55678C13.912 9.65028 13.9177 9.74464 13.9177 9.83861C13.9177 13.2373 13.9177 16.636 13.9177 20.0346C13.9177 20.0503 13.9179 20.066 13.9176 20.0816C13.9097 20.5928 13.9818 20.5034 13.52 20.7702C12.3819 21.4276 11.2434 22.0843 10.1045 22.7403C10.0367 22.7794 9.9689 22.8185 9.90223 22.8595C9.86297 22.8855 9.81679 22.8992 9.76968 22.8987C9.72257 22.8983 9.67668 22.8837 9.63795 22.8569C9.57102 22.8163 9.50252 22.7785 9.43473 22.7394C8.28263 22.0749 7.13051 21.4104 5.97841 20.746C5.91061 20.7069 5.8431 20.6673 5.77493 20.6288C5.72528 20.6054 5.684 20.5674 5.65665 20.5198C5.62931 20.4722 5.61721 20.4173 5.622 20.3626C5.62769 20.2533 5.6224 20.1434 5.62237 20.0338C5.62137 16.6351 5.62042 13.2365 5.61949 9.83777C5.61946 9.7438 5.626 9.64928 5.61814 9.55597C5.61153 9.48614 5.62776 9.41604 5.66439 9.35622C5.70102 9.2964 5.75609 9.25009 5.8213 9.22424C6.60989 8.77524 7.39431 8.31893 8.18111 7.86677C8.24314 7.84127 8.30707 7.82068 8.37232 7.80518Z" fill="#88898C"/>
<path d="M33.7351 7.85126C33.6608 8.05224 33.5895 8.25441 33.5117 8.45401C32.6931 10.5527 31.8738 12.6511 31.0539 14.7493C30.7577 15.5069 30.4549 16.2621 30.1637 17.0216C30.1482 17.0983 30.1036 17.166 30.0393 17.2105C29.975 17.255 29.8959 17.2728 29.8188 17.2602C29.6007 17.2732 29.3819 17.2602 29.1669 17.2213C29.0864 17.035 29.0012 16.8505 28.926 16.662C27.9002 14.09 26.8757 11.5174 25.8524 8.94438C25.7091 8.58358 25.5844 8.2154 25.4498 7.84708C25.3201 7.88045 25.3755 7.97348 25.3646 8.03575C25.3584 8.09808 25.3575 8.16082 25.3619 8.2233C25.3619 11.0269 25.3619 13.8304 25.3619 16.634C25.3619 16.7593 25.3646 16.8846 25.3607 17.0098C25.354 17.2263 25.3299 17.2491 25.1184 17.2583C25.1028 17.259 25.0871 17.2589 25.0714 17.2586C24.3126 17.2449 24.4169 17.3718 24.4161 16.6256C24.4125 13.3365 24.4121 10.0474 24.4151 6.75831C24.4153 6.17692 24.3588 6.23857 24.9479 6.23457C25.1828 6.23297 25.4177 6.23518 25.6526 6.23653C25.6997 6.23387 25.7464 6.24683 25.7854 6.27338C25.8244 6.29993 25.8535 6.33861 25.8683 6.38341C25.9084 6.48527 25.9541 6.58493 25.9944 6.68674C27.1339 9.56708 28.2738 12.4473 29.4142 15.3273C29.4523 15.496 29.5302 15.6532 29.6415 15.7857C29.7362 15.6614 29.8037 15.5187 29.8396 15.3666C30.9517 12.4924 32.0625 9.61773 33.1719 6.74248C33.3967 6.16196 33.2814 6.24096 33.8945 6.23483C34.1451 6.23233 34.3957 6.23514 34.6462 6.23923C34.6697 6.23759 34.6933 6.2411 34.7153 6.2495C34.7374 6.25789 34.7573 6.27098 34.7737 6.28786C34.7902 6.30473 34.8028 6.32499 34.8106 6.34722C34.8185 6.36944 34.8214 6.39311 34.8192 6.41658C34.8232 6.54174 34.8241 6.66705 34.8241 6.79229C34.8244 10.097 34.8244 13.4018 34.8243 16.7065C34.8243 16.7535 34.8248 16.8005 34.8242 16.8475C34.8191 17.2553 34.819 17.2557 34.4088 17.2587C34.2835 17.2596 34.1581 17.2615 34.033 17.2569C33.8487 17.2501 33.8292 17.2289 33.8222 17.0273C33.8179 16.9022 33.8206 16.7768 33.8206 16.6515C33.8206 13.8949 33.8206 11.1383 33.8206 8.38177V7.86549L33.7351 7.85126Z" fill="#19191A"/>
<path d="M61.2392 10.3792C61.3427 10.2676 61.4426 10.1523 61.5503 10.045C61.9684 9.60356 62.5081 9.29626 63.1011 9.16208C63.6941 9.02791 64.3135 9.07291 64.8809 9.29138C65.2987 9.41485 65.6669 9.66715 65.9328 10.0123C66.1987 10.3574 66.3488 10.7777 66.3617 11.2132C66.3754 11.3689 66.3812 11.5257 66.3813 11.682C66.3827 13.4033 66.3832 15.1246 66.3828 16.8459C66.3831 17.283 66.3753 17.2608 65.9742 17.26C65.8803 17.2598 65.7863 17.2622 65.6925 17.2592C65.4463 17.2516 65.4286 17.2391 65.4281 16.9849C65.4255 15.7957 65.425 14.6064 65.4267 13.4172C65.4266 12.8695 65.4283 12.3218 65.4253 11.7741C65.4288 11.602 65.4204 11.4299 65.4002 11.2589C65.3773 10.9748 65.2663 10.7048 65.0828 10.4867C64.8993 10.2685 64.6524 10.1129 64.3764 10.0416C63.9338 9.89915 63.4608 9.87939 63.0079 9.98447C62.5549 10.0896 62.139 10.3155 61.8044 10.6384C61.606 10.8173 61.4462 11.0349 61.3347 11.2778C61.2233 11.5206 61.1626 11.7836 61.1563 12.0508C61.1499 12.207 61.1502 12.3636 61.1502 12.5201C61.1497 13.9284 61.1495 15.3368 61.1495 16.7451C61.1495 16.8701 61.1465 16.9951 61.1406 17.1201C61.1414 17.1516 61.1302 17.1821 61.1095 17.2058C61.0887 17.2294 61.0598 17.2443 61.0285 17.2476C60.9668 17.2567 60.9044 17.2607 60.8421 17.2593C60.1112 17.2457 60.1855 17.3771 60.1846 16.6231C60.1822 14.3855 60.182 12.1478 60.1838 9.9101C60.1838 9.78492 60.1809 9.65961 60.1857 9.53459C60.1942 9.30903 60.2154 9.28567 60.4237 9.28059C60.5957 9.27639 60.768 9.27621 60.94 9.28135C61.119 9.2867 61.1471 9.31592 61.1503 9.51225C61.155 9.79177 61.1515 10.0714 61.1515 10.351L61.2392 10.3792Z" fill="#19191A"/>
<path d="M70.798 16.418C70.9165 17.2694 70.9174 17.2135 70.1861 17.3021C69.8428 17.346 69.4939 17.2996 69.174 17.1675C68.9973 17.1011 68.8409 16.9897 68.7207 16.8442C68.6004 16.6987 68.5203 16.5242 68.4884 16.3381C68.4466 16.1073 68.4283 15.8728 68.4339 15.6383C68.4339 13.9328 68.434 12.2273 68.4342 10.5218C68.4344 10.0444 68.4563 10.0609 67.9743 10.062C67.7865 10.0625 67.5987 10.0619 67.4111 10.0576C67.3877 10.0591 67.3642 10.0556 67.3422 10.0473C67.3203 10.039 67.3003 10.0261 67.2838 10.0094C67.2672 9.99278 67.2545 9.97277 67.2463 9.95075C67.2381 9.92873 67.2348 9.90522 67.2365 9.88181C67.2341 9.83497 67.2329 9.78802 67.2327 9.74112C67.231 9.23573 67.2214 9.28029 67.688 9.27909C67.8289 9.27873 67.9697 9.28065 68.1105 9.27858C68.4273 9.27389 68.4312 9.27318 68.4329 8.97483C68.4359 8.42721 68.4337 7.87956 68.434 7.33192C68.4341 7.22242 68.435 7.11291 68.4368 7.0034C68.4346 6.98 68.4376 6.9564 68.4457 6.93433C68.4538 6.91227 68.4668 6.8923 68.4837 6.87592C68.5005 6.85954 68.5209 6.84716 68.5431 6.83968C68.5654 6.83221 68.5891 6.82984 68.6124 6.83275C68.8158 6.83117 69.0192 6.83253 69.2225 6.83358C69.3417 6.8342 69.3852 6.90823 69.3856 7.01395C69.3878 7.56157 69.3828 8.10929 69.392 8.65676C69.3954 8.85505 69.3014 9.10244 69.461 9.23871C69.5942 9.35245 69.8237 9.27136 70.0103 9.27802C70.151 9.28303 70.2919 9.27906 70.4327 9.27902C70.8978 9.27883 70.8712 9.25123 70.8719 9.70377C70.872 9.76632 70.8696 9.82888 70.8686 9.89143C70.8669 10.0083 70.7995 10.0573 70.6911 10.0586C70.4877 10.0612 70.2843 10.0614 70.0809 10.0622C69.9401 10.0628 69.7992 10.0591 69.6585 10.0636C69.4211 10.0713 69.3926 10.0958 69.391 10.343C69.3868 10.9845 69.3892 11.6261 69.3892 12.2676C69.3891 13.3316 69.3871 14.3956 69.3912 15.4596C69.3937 15.6469 69.4087 15.8338 69.4362 16.0191C69.4492 16.121 69.494 16.2161 69.5643 16.291C69.6345 16.3658 69.7267 16.4166 69.8275 16.4361C70.0076 16.4915 70.1984 16.5024 70.3836 16.4679C70.5168 16.4228 70.6579 16.4058 70.798 16.418Z" fill="#19191A"/>
<path d="M50.043 9.27962C50.0273 9.27933 50.0116 9.27956 49.996 9.28062C49.8398 9.29126 49.8109 9.31586 49.8084 9.4841C49.8038 9.79349 49.8071 10.103 49.8071 10.4125L49.7234 10.4349C49.6252 10.3145 49.5305 10.191 49.4281 10.0742C49.0872 9.65974 48.6263 9.36106 48.1088 9.21919C47.5296 9.06866 46.921 9.07296 46.344 9.23164C45.8556 9.35681 45.4046 9.59767 45.0289 9.93388C44.6532 10.2701 44.364 10.6918 44.1856 11.1633C43.9282 11.771 43.793 12.4234 43.7878 13.0834C43.7825 13.7433 43.9073 14.3978 44.1551 15.0095C44.7008 16.4221 46.0239 17.3392 47.9106 17.0434C48.4101 16.9632 48.8705 16.7245 49.224 16.3627C49.357 16.2307 49.4731 16.0819 49.6002 15.9438C49.6476 15.8923 49.6704 15.7993 49.8073 15.83C49.8332 16.3553 49.8245 16.8818 49.7813 17.4061C49.7514 17.841 49.5748 18.2529 49.2802 18.5743C48.9857 18.8957 48.5907 19.1075 48.16 19.1751C47.6215 19.2829 47.0674 19.2864 46.5276 19.1854C46.3283 19.1456 46.133 19.0877 45.9443 19.0124C45.7567 18.9517 45.5863 18.8473 45.4469 18.7078C45.3076 18.5684 45.2034 18.3978 45.1429 18.2103C45.136 18.1683 45.1206 18.1283 45.0975 18.0926C45.0744 18.057 45.0441 18.0265 45.0087 18.0031C44.9732 17.9797 44.9333 17.9639 44.8914 17.9567C44.8496 17.9495 44.8067 17.9511 44.7654 17.9613C44.7344 17.9642 44.7028 17.9616 44.6715 17.9616C44.1072 17.9614 44.0754 17.9271 44.3047 18.5372C44.381 18.7266 44.4898 18.9012 44.6262 19.0533C44.9239 19.3995 45.309 19.6595 45.7415 19.8061C46.3073 19.9952 46.9036 20.0763 47.4993 20.0453C47.9858 20.0419 48.4682 19.9568 48.9265 19.7936C49.3658 19.642 49.7575 19.3774 50.0621 19.0265C50.3668 18.6755 50.5737 18.2505 50.662 17.7943C50.7276 17.472 50.7569 17.1433 50.7493 16.8145C50.7488 14.528 50.753 12.2414 50.747 9.95487C50.7449 9.14689 50.8735 9.2956 50.043 9.27962ZM49.8607 13.5141C49.837 13.9212 49.7544 14.3227 49.6156 14.706C49.5127 14.9856 49.3676 15.2477 49.1854 15.4833C48.9425 15.7938 48.6127 16.0249 48.2379 16.1469C47.701 16.3326 47.1207 16.3527 46.5722 16.2047C46.2919 16.1269 46.0304 15.9926 45.8039 15.81C45.5774 15.6274 45.3908 15.4003 45.2554 15.1428C45.0162 14.701 44.8711 14.2144 44.8292 13.7137C44.8083 13.5116 44.8089 13.3072 44.7997 13.1039C44.7919 12.6174 44.8621 12.1329 45.0077 11.6686C45.0796 11.445 45.1763 11.2301 45.296 11.028C45.482 10.6894 45.7564 10.4076 46.09 10.2128C46.4237 10.0181 46.8039 9.91756 47.1902 9.92209C47.4251 9.90917 47.6607 9.92409 47.892 9.96655C48.2868 10.0434 48.654 10.2241 48.9558 10.4899C49.2576 10.7558 49.4831 11.0973 49.6091 11.4793C49.8437 12.1303 49.9297 12.8256 49.8607 13.5141Z" fill="#19191A"/>
<path d="M43.4082 16.6823C43.4056 16.654 43.3808 16.6277 43.3602 16.5889C43.273 16.5936 43.1806 16.6038 43.0883 16.6027C43.0178 16.6123 42.946 16.6071 42.8776 16.5875C42.8092 16.5679 42.7457 16.5342 42.691 16.4887C42.6363 16.4432 42.5917 16.3868 42.56 16.3231C42.5282 16.2594 42.5101 16.1898 42.5068 16.1187C42.4892 15.9789 42.483 15.838 42.4882 15.6973C42.4869 14.3978 42.4865 13.0983 42.4869 11.7988C42.4868 11.611 42.4874 11.4228 42.4754 11.2355C42.4742 10.7918 42.3259 10.361 42.0539 10.0105C41.7818 9.65995 41.4013 9.40948 40.9717 9.29822C40.052 9.01123 39.0641 9.0297 38.1558 9.35087C37.7286 9.49124 37.3503 9.7504 37.065 10.098C36.7798 10.4456 36.5995 10.8673 36.5452 11.3137C36.5276 11.4133 36.4722 11.5249 36.59 11.6476C36.7993 11.6476 37.0322 11.6477 37.265 11.6476C37.3123 11.6502 37.3588 11.6342 37.3945 11.603C37.4301 11.5719 37.4522 11.528 37.456 11.4808C37.4686 11.4195 37.476 11.3572 37.4882 11.2958C37.5356 10.9997 37.6671 10.7234 37.8668 10.4998C38.0666 10.2761 38.3263 10.1144 38.6153 10.034C39.2028 9.85662 39.8261 9.83295 40.4254 9.96522C40.61 10.0033 40.7861 10.0745 40.9452 10.1754C41.2185 10.3365 41.4191 10.5968 41.5052 10.9022C41.5745 11.1436 41.6029 11.395 41.589 11.6459C41.6032 11.8366 41.5464 12.0259 41.4295 12.1772C41.3125 12.3286 41.1437 12.4313 40.9555 12.4657C40.641 12.5608 40.3181 12.6259 39.9913 12.6604C39.526 12.7212 39.0597 12.7766 38.597 12.8536C38.0998 12.9212 37.6192 13.0798 37.1794 13.3213C36.924 13.4607 36.7037 13.6563 36.5349 13.8933C36.3661 14.1302 36.2534 14.4024 36.2052 14.6893C36.1793 14.8753 36.167 15.0629 36.1686 15.2506C36.1433 15.7021 36.2747 16.1485 36.5406 16.5144C36.8065 16.8802 37.1906 17.1429 37.6279 17.2582C39.0579 17.6756 40.3546 17.4612 41.3886 16.2867C41.4364 16.2324 41.4726 16.1474 41.5893 16.1863C41.6045 16.2999 41.6127 16.422 41.6382 16.5404C41.6689 16.7275 41.7549 16.9011 41.8852 17.0388C42.0155 17.1765 42.1841 17.272 42.3692 17.3129C42.5058 17.3454 42.6459 17.3614 42.7864 17.3604C43.3724 17.3647 43.4608 17.2658 43.4082 16.6823ZM41.5856 14.6005C41.5154 15.1008 41.2864 15.5653 40.9325 15.9258C40.5786 16.2863 40.1184 16.5237 39.6195 16.6032C39.1889 16.6898 38.7458 16.6929 38.3141 16.6123C38.0071 16.5778 37.7228 16.4341 37.5128 16.2074C37.3029 15.9808 37.1814 15.6862 37.1705 15.3775C37.1032 14.5154 37.4467 13.9853 38.2385 13.7213C38.5691 13.6272 38.9059 13.5565 39.2465 13.5097C39.6 13.4452 39.9553 13.3904 40.3106 13.3362C40.6823 13.2832 41.0459 13.1842 41.3931 13.0413C41.4594 13.0209 41.5272 13.0061 41.596 12.9971C41.6368 13.5309 41.6334 14.0672 41.5856 14.6005Z" fill="#19191A"/>
<path d="M53.0434 13.4523C53.1676 13.4406 53.2931 13.4389 53.418 13.4388C54.263 13.4378 55.1079 13.4376 55.9529 13.4383C56.7978 13.4383 57.6428 13.4382 58.4877 13.4379C58.6127 13.4378 58.7381 13.4378 58.8626 13.4282C58.8822 13.4284 58.9016 13.4243 58.9196 13.4163C58.9375 13.4082 58.9534 13.3964 58.9664 13.3817C58.9793 13.3669 58.989 13.3495 58.9946 13.3307C59.0003 13.3119 59.0018 13.2921 58.9991 13.2727C58.9766 12.961 58.9588 12.6483 58.9197 12.3385C58.8692 11.8873 58.7528 11.4459 58.574 11.0285C58.3786 10.5216 58.0488 10.0775 57.62 9.74395C57.1913 9.41039 56.6797 9.19994 56.1403 9.13522C55.4412 9.01234 54.7212 9.10967 54.0798 9.41377C53.4384 9.71787 52.9073 10.2137 52.56 10.8327C52.4373 11.0506 52.3319 11.2778 52.2449 11.5121C51.933 12.386 51.856 13.3264 52.0216 14.2394C52.1052 14.814 52.3065 15.3651 52.6129 15.8583C53.0497 16.5748 53.7453 17.0961 54.5556 17.3141C55.0853 17.4609 55.6391 17.4995 56.184 17.4275C56.7815 17.3744 57.3491 17.1426 57.813 16.7623C58.2769 16.382 58.6155 15.8709 58.7848 15.2954C58.8199 15.1918 58.848 15.0859 58.8688 14.9785C58.873 14.9633 58.8736 14.9474 58.8706 14.9319C58.8675 14.9165 58.8609 14.902 58.8513 14.8895C58.8416 14.8771 58.8292 14.8671 58.815 14.8603C58.8008 14.8534 58.7853 14.85 58.7695 14.8503C58.5508 14.8427 58.3317 14.8462 58.1128 14.8463C58.019 14.8463 57.9744 14.9113 57.946 14.9862C57.8623 15.222 57.7539 15.4484 57.6227 15.6615C57.457 15.938 57.2255 16.1694 56.9489 16.3351C56.6722 16.5008 56.359 16.5956 56.0369 16.6111C55.8029 16.6283 55.568 16.6292 55.3339 16.6137C54.9729 16.5947 54.6214 16.4907 54.3082 16.3102C53.9949 16.1297 53.7288 15.8777 53.5313 15.5749C53.2512 15.1578 53.0692 14.6826 52.9991 14.1851C52.9676 13.9847 52.9478 13.7823 52.9315 13.5801C52.9303 13.5643 52.9323 13.5485 52.9373 13.5335C52.9423 13.5185 52.9502 13.5046 52.9607 13.4927C52.9711 13.4808 52.9838 13.4711 52.998 13.4642C53.0122 13.4572 53.0276 13.4532 53.0434 13.4523ZM53.6187 10.8106C53.8545 10.4964 54.1659 10.2472 54.5241 10.0861C54.8823 9.92494 55.2755 9.85721 55.6669 9.8892C56.1563 9.879 56.6347 10.0355 57.0234 10.333C57.4122 10.6306 57.6882 11.0514 57.8062 11.5265C57.8994 11.8082 57.9579 12.1002 57.9806 12.396C57.9985 12.6585 57.9801 12.6746 57.6964 12.6822C57.6496 12.6834 57.6028 12.6826 57.5559 12.6826C56.1509 12.6826 54.7459 12.6821 53.3408 12.6811C53.2094 12.7071 53.073 12.6834 52.958 12.6146C53.0016 11.9625 53.2308 11.3365 53.6187 10.8106Z" fill="#19191A"/>
<path d="M78.5644 11.3066C78.3767 10.8058 78.0731 10.3566 77.6784 9.99573C77.2837 9.63484 76.8092 9.37252 76.2936 9.23024C75.612 9.03507 74.889 9.03658 74.2082 9.23458C73.6764 9.37879 73.1879 9.65082 72.7853 10.027C72.3827 10.4031 72.0782 10.872 71.8983 11.3928C71.4704 12.4974 71.431 13.7148 71.7866 14.8449C71.9909 15.6341 72.4651 16.3268 73.127 16.8027C73.7889 17.2786 74.5965 17.5077 75.4097 17.45C76.0968 17.4477 76.7667 17.2356 77.33 16.8421C77.8932 16.4486 78.3229 15.8926 78.5615 15.2483C78.7934 14.6832 78.9185 14.0799 78.9304 13.4692C78.9524 12.7312 78.828 11.9962 78.5644 11.3066ZM77.7218 14.7988C77.6342 15.0666 77.5106 15.3213 77.3544 15.5557C77.1568 15.8677 76.8879 16.1282 76.5698 16.3157C76.2516 16.5032 75.8935 16.6124 75.5249 16.6343C75.1817 16.6676 74.8353 16.6396 74.5019 16.5517C74.1554 16.4496 73.8354 16.2731 73.5642 16.0346C73.293 15.7961 73.0771 15.5013 72.9316 15.1707C72.7323 14.7447 72.6106 14.2865 72.5722 13.8177C72.4984 13.1626 72.5572 12.4994 72.7451 11.8675C72.8961 11.3209 73.2061 10.8314 73.6358 10.4613C74.0072 10.1435 74.4714 9.95451 74.9592 9.9226C75.2709 9.88894 75.5861 9.90399 75.8932 9.96721C76.4948 10.107 77.0183 10.4755 77.3529 10.9945C77.6415 11.4434 77.8265 11.9509 77.8945 12.4801C77.9365 12.7577 77.9425 13.0407 77.957 13.2231C77.9588 13.7572 77.8795 14.2885 77.7218 14.7988Z" fill="#19191A"/>
</svg>
